<svg xmlns="http://www.w3.org/2000/svg" width="214.2" height="71" viewBox="0 0 214.2 71">
  <path id="Path_305" data-name="Path 305" d="M182.7,49.9a10.5,10.5,0,1,1,10.5,10.5,10.5,10.5,0,0,1-10.5-10.5Zm-10.5,0a21,21,0,1,0,21-21,21,21,0,0,0-21,21ZM69.5,62.1l-.1.1-.1.1a20.958,20.958,0,0,1-31.4,2.8,22.089,22.089,0,0,0,5.2-10.2A10.5,10.5,0,0,0,61,56a4.908,4.908,0,0,1,2.8-1.8,5.2,5.2,0,0,1,5.7,7.9ZM52.4,29a21.026,21.026,0,0,0-21,20.5h0V50A10.5,10.5,0,1,1,19.1,39.7l.3-.1a7.084,7.084,0,0,1,1.4-.1,10.657,10.657,0,0,1,9.3,5.6,23.052,23.052,0,0,1,5.2-10.2A22.891,22.891,0,0,0,31,31.7,16.758,16.758,0,0,0,16.6,6.3,16.581,16.581,0,0,0,0,23V50a21,21,0,0,0,42,.6h0V50A10.5,10.5,0,0,1,52.5,39.5,10.18,10.18,0,0,1,60,42.7L47.6,46a5.275,5.275,0,0,0-3.7,6.4,5.152,5.152,0,0,0,6.4,3.7l18.5-4.9c.1,0,.1,0,.2-.1a5.17,5.17,0,0,0,3.7-6.3A20.921,20.921,0,0,0,52.4,29Zm-34.6.2a20.566,20.566,0,0,0-7.3,2.6V23.1a6.3,6.3,0,1,1,7.4,6.2l-.1-.1ZM126.2,29a20.921,20.921,0,0,1,20.3,15.8,5.2,5.2,0,0,1-3.7,6.3c-.1,0-.1,0-.2.1l-18.5,4.9A5.227,5.227,0,0,1,121.4,46l12.4-3.3a10.347,10.347,0,0,0-7.5-3.2A10.5,10.5,0,0,0,115.8,50v.6a21,21,0,0,1-42-.6h0V15.5a5.2,5.2,0,1,1,10.4,0V31.8A21.233,21.233,0,0,1,94.8,29a20.377,20.377,0,0,1,10.9,3.1,20.136,20.136,0,0,1,2.9,2.2,4.349,4.349,0,0,0,.7.6,22.089,22.089,0,0,0-5.2,10.2,8.636,8.636,0,0,0-1-1.6,10.531,10.531,0,0,0-8.2-4,6.15,6.15,0,0,0-1.4.1H93a10.476,10.476,0,0,0,1.8,20.8,10.413,10.413,0,0,0,10.1-7.8,12.413,12.413,0,0,0,.3-2.7v-.5a21.008,21.008,0,0,1,21-20.4Zm17.1,33.1a5.362,5.362,0,0,0,.7-4.3,5.152,5.152,0,0,0-6.4-3.7,5.917,5.917,0,0,0-2.8,1.8,10.467,10.467,0,0,1-8.6,4.5,10.657,10.657,0,0,1-9.3-5.6A23.052,23.052,0,0,1,111.7,65a20.958,20.958,0,0,0,31.4-2.8l.1-.1Zm-50-22.5a.367.367,0,0,0-.3.1l.3-.1ZM160.2,5.2h0V18.5c-.7,0-1.4-.1-2.1-.1V11.2a5.2,5.2,0,1,0-10.4,0v6.2c-3.5-.5-7-1-10.5-1.7a4.869,4.869,0,0,0-1.2-.1,5.164,5.164,0,0,0-5.1,5.3,5.346,5.346,0,0,0,4.2,5.1c4.1.8,8.3,1.5,12.6,2V65.8a5.2,5.2,0,1,0,10.4,0V28.9c.7,0,1.4.1,2.1.1V65.7a5.2,5.2,0,1,0,10.4,0V29.2h.4a166.968,166.968,0,0,0,21.4-1.7,5.279,5.279,0,0,0-.8-10.5H191a148.789,148.789,0,0,1-20.2,1.6h-.2V5.2A5.164,5.164,0,0,0,165.4,0a5.228,5.228,0,0,0-5.2,5.2Zm21.1-1.3a3.167,3.167,0,0,1,1.6.4,3.447,3.447,0,0,1,1.2,1.2,3.166,3.166,0,0,1,.4,1.6,2.934,2.934,0,0,1-.4,1.6,3.447,3.447,0,0,1-1.2,1.2,3.4,3.4,0,0,1-3.2,0,3.447,3.447,0,0,1-1.2-1.2,2.934,2.934,0,0,1-.4-1.6,2.934,2.934,0,0,1,.4-1.6,3.447,3.447,0,0,1,1.2-1.2,5.349,5.349,0,0,1,1.6-.4Zm0,.6a3.079,3.079,0,0,1,1.3.3,2.41,2.41,0,0,1,1,1,3.259,3.259,0,0,1,.4,1.3,2.01,2.01,0,0,1-.4,1.3,2.41,2.41,0,0,1-1,1,3.258,3.258,0,0,1-1.3.4,2.01,2.01,0,0,1-1.3-.4,2.41,2.41,0,0,1-1-1,3.259,3.259,0,0,1-.4-1.3,2.01,2.01,0,0,1,.4-1.3,2.41,2.41,0,0,1,1-1,3.079,3.079,0,0,1,1.3-.3Zm-1.4,4.4V5.5h1.2a2.22,2.22,0,0,1,.9.1,1.38,1.38,0,0,1,.4.3c.1.2.2.3.2.5a.908.908,0,0,1-.3.7.908.908,0,0,1-.7.3c.1.1.2.1.3.2a6.816,6.816,0,0,1,.5.7l.4.7h-.7l-.3-.5a1.828,1.828,0,0,0-.6-.8.6.6,0,0,0-.4-.1h-.3V9.1h-.6Zm.6-1.9V6h.6c.3,0,.5,0,.6.1a.215.215,0,0,1,.2.2.367.367,0,0,1,.1.3.52.52,0,0,1-.2.4c-.1.1-.3.1-.7.1h-.6Z" fill="#ed1c24" fill-rule="evenodd"/>
</svg>
