<svg id="_003-armchair" data-name="003-armchair" xmlns="http://www.w3.org/2000/svg" width="88.333" height="77.238" viewBox="0 0 88.333 77.238">
  <path id="Path_477" data-name="Path 477" d="M64.758,47.54H23.58A1.339,1.339,0,0,1,22.242,46.2V24.46A11.028,11.028,0,0,0,11.224,13.445a8.553,8.553,0,0,0-8.547,8.545,6.575,6.575,0,0,0,6.569,6.569,4.994,4.994,0,0,0,4.987-4.987,3.728,3.728,0,0,0-3.724-3.723,1.338,1.338,0,1,1,0-2.677,6.407,6.407,0,0,1,6.4,6.4,7.671,7.671,0,0,1-7.664,7.664A9.258,9.258,0,0,1,0,21.989,11.234,11.234,0,0,1,11.221,10.768,13.71,13.71,0,0,1,24.916,24.46v20.4h38.5V24.46A13.709,13.709,0,0,1,77.112,10.768,11.234,11.234,0,0,1,88.333,21.989a9.258,9.258,0,0,1-9.246,9.246,7.671,7.671,0,0,1-7.661-7.664,6.407,6.407,0,0,1,6.4-6.4,1.338,1.338,0,0,1,0,2.677A3.725,3.725,0,0,0,74.1,23.571a4.991,4.991,0,0,0,4.984,4.987,6.575,6.575,0,0,0,6.569-6.569,8.553,8.553,0,0,0-8.545-8.545A11.026,11.026,0,0,0,66.1,24.46V46.2A1.337,1.337,0,0,1,64.758,47.54Z" transform="translate(0 12.507)"/>
  <path id="Path_478" data-name="Path 478" d="M70.24,49.24H8.477a5.529,5.529,0,0,1-5.522-5.522V18.753a1.338,1.338,0,0,1,2.677,0V43.718a2.851,2.851,0,0,0,2.845,2.846H70.24a2.851,2.851,0,0,0,2.845-2.846V18.753a1.338,1.338,0,0,1,2.677,0V43.718A5.529,5.529,0,0,1,70.24,49.24Z" transform="translate(4.955 23.653)"/>
  <path id="Path_479" data-name="Path 479" d="M50.825,21.948H9.647a1.338,1.338,0,0,1,0-2.677H50.828a1.338,1.338,0,1,1,0,2.677Z" transform="translate(13.933 26.766)"/>
  <path id="Path_480" data-name="Path 480" d="M9.647,34.661a1.339,1.339,0,0,1-1.338-1.338V30.038a1.338,1.338,0,1,1,2.677,0v3.284A1.339,1.339,0,0,1,9.647,34.661Z" transform="translate(13.933 42.577)"/>
  <path id="Path_481" data-name="Path 481" d="M25.03,34.661a1.339,1.339,0,0,1-1.338-1.338V30.038a1.338,1.338,0,1,1,2.677,0v3.284A1.337,1.337,0,0,1,25.03,34.661Z" transform="translate(39.728 42.577)"/>
  <path id="Path_482" data-name="Path 482" d="M65.324,28.025a1.339,1.339,0,0,1-1.338-1.338V17.963A13.227,13.227,0,0,0,50.773,4.75H20.934A13.227,13.227,0,0,0,7.721,17.963v8.724a1.338,1.338,0,1,1-2.677,0V17.963a15.91,15.91,0,0,1,15.89-15.89H50.773a15.91,15.91,0,0,1,15.89,15.89v8.724A1.337,1.337,0,0,1,65.324,28.025Z" transform="translate(8.458 -2.073)"/>
</svg>
