<svg xmlns="http://www.w3.org/2000/svg" width="66.523" height="84" viewBox="0 0 66.523 84">
  <g id="groceries" transform="translate(-5.91 0)">
    <path id="Path_492" data-name="Path 492" d="M36.6,27.891a1.478,1.478,0,0,0,1.874-.925,2.607,2.607,0,0,1,3.3-1.626,5.566,5.566,0,0,0,7.048-3.477,1.478,1.478,0,1,0-2.8-.951,2.6,2.6,0,0,1-3.3,1.626,5.573,5.573,0,0,0-7.048,3.477A1.481,1.481,0,0,0,36.6,27.891Z" transform="translate(14.196 9.521)"/>
    <path id="Path_493" data-name="Path 493" d="M38.963,20.924A1.478,1.478,0,0,0,40.837,20a2.6,2.6,0,0,1,3.3-1.626,5.566,5.566,0,0,0,7.048-3.478,1.478,1.478,0,1,0-2.8-.951,2.6,2.6,0,0,1-3.3,1.628,5.556,5.556,0,0,0-7.048,3.477A1.477,1.477,0,0,0,38.963,20.924Z" transform="translate(15.327 6.188)"/>
    <path id="Path_494" data-name="Path 494" d="M41.326,13.679a1.479,1.479,0,0,0,1.876-.925,1.925,1.925,0,0,1,2.436-1.2A4.875,4.875,0,0,0,51.826,8.5a1.478,1.478,0,1,0-2.8-.951,1.917,1.917,0,0,1-2.438,1.2A4.89,4.89,0,0,0,40.4,11.8,1.481,1.481,0,0,0,41.326,13.679Z" transform="translate(16.458 3.131)"/>
    <path id="Path_495" data-name="Path 495" d="M68.493,37.3a1.923,1.923,0,0,0-.843-.315,104.045,104.045,0,0,0,4.779-27.8c.072-2.8-1.3-6.541-4.056-8.272A6.059,6.059,0,0,0,62.061.844c-4.416,2.278-7.573,8.979-10.11,14.366l-.432.914a8.56,8.56,0,0,0-4.685-5.931,7.051,7.051,0,0,0-5.481-5.45,4.572,4.572,0,0,0-.112-.457A5.1,5.1,0,0,0,37.015.679a5.027,5.027,0,0,0-3.141.646A5.36,5.36,0,0,0,31.261.643a5.446,5.446,0,0,0-5.294,4.192,6.66,6.66,0,0,0-4.893,6.343,7.4,7.4,0,0,0-5.041,9.842A5.816,5.816,0,0,0,15.222,27a7.855,7.855,0,0,0-5.889-2.843,1.479,1.479,0,0,0,.044,2.956c.05,0,.1,0,.143,0a5.134,5.134,0,0,1,3.61,1.981c-2.345.676-5.171,1.775-6.49,4.262A7.529,7.529,0,0,0,6.283,38.8a2.564,2.564,0,0,0-.37,1.453L8.429,76.006A8.419,8.419,0,0,0,16.842,84h41.5a8.413,8.413,0,0,0,8.411-7.968l2.58-37c0-.009,0-.018,0-.027A1.916,1.916,0,0,0,68.493,37.3ZM52.726,20.351c.585-1.092,1.224-2.447,1.9-3.882,2.222-4.719,5.267-11.18,8.79-13A3.223,3.223,0,0,1,66.8,3.415c1.713,1.076,2.721,3.792,2.673,5.693a101.239,101.239,0,0,1-4.747,27.339c-.1.309-.309.933-.612,1.789L61.6,39.354a1.375,1.375,0,0,0-.16.084,4.54,4.54,0,0,1-4.717,0l-1.054-.633a7.629,7.629,0,0,0-3.929-1.091c-.016,0-.033,0-.05,0a7.616,7.616,0,0,0-3.979,1.088l-1.053.633a4.643,4.643,0,0,1-1.892.6c.037-.129.08-.254.118-.381q.608-2.064,1.295-4.08c.173-.511.353-1.02.534-1.527q.57-1.6,1.189-3.172c.183-.469.362-.942.551-1.406A98.4,98.4,0,0,1,52.726,20.351ZM33.881,23.857c.173-.222.341-.438.5-.647a.008.008,0,0,1,0-.006,3.646,3.646,0,0,0,.3-.477,3.169,3.169,0,0,0,.281-2.2l6.17-1.35a3.377,3.377,0,0,0,.157.551,3.315,3.315,0,0,0,1.458,1.633c.225.124.46.248.7.377.2.1.4.214.6.324.1.052.194.1.29.157.176.1.346.208.517.316.146.09.291.183.433.282.164.114.321.239.477.367.137.112.269.235.4.361s.279.278.408.432a5.084,5.084,0,0,1,.625.893c-.627,1.384-1.217,2.8-1.787,4.219-.089.22-.183.435-.271.655A15.087,15.087,0,0,0,40.031,32.3a8.7,8.7,0,0,1-7.239,1.758l-.9-4.108C31.286,27.167,32.606,25.485,33.881,23.857Zm7.331-8.977a.61.61,0,0,1,.115-.012.622.622,0,0,1,.6.48.616.616,0,0,1-.466.727L33.3,17.863a.611.611,0,1,1-.26-1.194l4.339-.949ZM36.434,37.744c-.112.007-.226.01-.339.022a7.584,7.584,0,0,0-2.356.625L33.457,37.1c.426.035.85.071,1.248.071A11.432,11.432,0,0,0,41.744,34.7a18.11,18.11,0,0,1,2.049-1.276c-.136.386-.271.77-.4,1.157-.095.278-.2.551-.288.831q-.652,1.973-1.234,3.979l-.983-.588a7.629,7.629,0,0,0-3.929-1.091l-.055,0C36.745,37.718,36.59,37.735,36.434,37.744ZM18.753,22.458l.968-.8-.628-1.084A4.445,4.445,0,0,1,22.762,13.9l1.795-.075-.418-1.747a3.643,3.643,0,0,1-.106-.854,3.68,3.68,0,0,1,3.385-3.653l1.366-.1V6a2.483,2.483,0,0,1,2.479-2.4,2.44,2.44,0,0,1,1.651.647l1.036.936.993-.982a2.093,2.093,0,0,1,1.725-.585,2.132,2.132,0,0,1,1.738,1.5,1.926,1.926,0,0,1,.069.785L38.3,7.557h1.665a4.07,4.07,0,0,1,4.047,3.78l.067.971L45,12.63a5.634,5.634,0,0,1,3.778,5.444,5.336,5.336,0,0,1-.97,2.934,15.641,15.641,0,0,0-2.951-1.877c-.232-.123-.457-.241-.683-.367a.323.323,0,0,1-.167-.253.844.844,0,0,1,.205-.656,3.173,3.173,0,0,0,.695-2.73l-.179-.815a3.153,3.153,0,0,0-3.75-2.405l-.4.087h-.013l-4.339.949L32,13.867a3.157,3.157,0,0,0-2.405,3.752l.089.4v0s0,0,0,.006l.087.4A3.145,3.145,0,0,0,31.6,20.645a.9.9,0,0,1,.489.477c.038.109.016.166-.069.307h0c-.146.2-.3.4-.466.6s-.331.424-.5.649c-.058.075-.112.154-.17.231-.123.167-.245.337-.367.514-.067.1-.13.2-.2.3-.112.173-.22.352-.327.535-.062.106-.123.211-.182.322-.111.207-.211.424-.31.646-.043.095-.089.185-.127.284a8.153,8.153,0,0,0-.337,1.014c-.015.056-.021.117-.034.174a8.062,8.062,0,0,0-.166.939c-.015.13-.018.266-.027.4-.012.174-.034.34-.034.522l-.018-.022c-.021-.027-.041-.05-.061-.077-.257-.339-.514-.65-.773-.946-.081-.093-.164-.183-.247-.272q-.326-.353-.653-.662c-.071-.067-.142-.139-.214-.2a10.223,10.223,0,0,0-.834-.674c-.078-.056-.158-.1-.237-.157-.21-.14-.42-.271-.633-.386-.1-.056-.205-.111-.31-.161a6.421,6.421,0,0,0-.665-.279c-.074-.027-.148-.062-.222-.086a6.165,6.165,0,0,0-.732-.185c-.028-.006-.056,0-.084-.007-.05-.009-.1-.028-.149-.035-.171-.025-.334-.015-.5-.027-.118-.007-.235-.033-.353-.033-.035,0-.072.009-.109.009a5.978,5.978,0,0,0-.674.058c-.111.015-.222.024-.333.044a6.926,6.926,0,0,0-.853.216c-.043.013-.084.024-.127.038a9.265,9.265,0,0,0-2.087,1.03,2.817,2.817,0,0,1-.205-1.058A2.878,2.878,0,0,1,18.753,22.458Zm-9.5,12.274c.625-1.178,2.143-2.077,4.779-2.831A7.978,7.978,0,0,0,17.34,30c.421-.4.816-.745,1.2-1.055a6.575,6.575,0,0,1,3.149-1.614l.062-.007a3,3,0,0,1,.856.025c.072.013.146.038.22.058a3.1,3.1,0,0,1,.411.123c.089.034.177.086.268.127a4.294,4.294,0,0,1,.384.2c.1.061.2.139.3.208.12.084.239.161.361.259s.225.2.337.3.225.2.337.309.25.272.375.412c.1.114.2.219.307.341.14.169.282.361.424.547.09.118.179.225.269.35.161.225.324.475.486.723.071.109.143.207.214.319q.353.557.71,1.186a11.231,11.231,0,0,1,.976,7.227c-.078-.007-.155-.019-.234-.031a4.592,4.592,0,0,1-1.6-.572L26.1,38.8a7.629,7.629,0,0,0-3.929-1.091c-.016,0-.033,0-.05,0A7.616,7.616,0,0,0,18.14,38.8l-.513.307a5.557,5.557,0,0,1-5.8,0L9.841,37.917a0,0,0,0,1,0,0,2.533,2.533,0,0,0-.834-.315A4.249,4.249,0,0,1,9.255,34.731ZM63.8,75.853a5.466,5.466,0,0,1-5.461,5.189h-41.5a5.472,5.472,0,0,1-5.462-5.217L8.924,40.877l1.286.772a8.867,8.867,0,0,0,9.041,0l.513-.307a4.531,4.531,0,0,1,4.717,0l1.054.633a7.6,7.6,0,0,0,4.337,1.061c.133-.006.266-.006.4-.018.016,0,.031-.01.049-.012a7.6,7.6,0,0,0,2.914-.952,1.4,1.4,0,0,0,.257-.08l1.054-.633a4.531,4.531,0,0,1,4.717,0l1.054.633a7.636,7.636,0,0,0,3.616,1.069c.025,0,.052,0,.077,0a7.552,7.552,0,0,0,1.292-.061c.245-.031.483-.093.724-.148.117-.028.234-.053.349-.087a7.579,7.579,0,0,0,1.9-.779h0l1.054-.633a4.531,4.531,0,0,1,4.717,0l1.054.633a7.629,7.629,0,0,0,3.96,1.085c.022,0,.046,0,.068,0a7.632,7.632,0,0,0,3.848-1.041l2.9-1.289a1.574,1.574,0,0,0,.164-.117l.226-.1Z" transform="translate(0 0)"/>
    <path id="Path_496" data-name="Path 496" d="M12.389,43.96H22.737a1.478,1.478,0,1,0,0-2.956H12.389a1.478,1.478,0,1,0,0,2.956Z" transform="translate(2.392 19.61)"/>
    <path id="Path_497" data-name="Path 497" d="M12.389,47.96h13.3a1.478,1.478,0,0,0,0-2.956h-13.3a1.478,1.478,0,0,0,0,2.956Z" transform="translate(2.392 21.523)"/>
    <path id="Path_498" data-name="Path 498" d="M28.65,49H12.389a1.478,1.478,0,0,0,0,2.956H28.65a1.478,1.478,0,0,0,0-2.956Z" transform="translate(2.392 23.436)"/>
    <path id="Path_499" data-name="Path 499" d="M30.346,49H27.389a1.478,1.478,0,0,0,0,2.956h2.956a1.478,1.478,0,0,0,0-2.956Z" transform="translate(9.566 23.436)"/>
  </g>
</svg>
