<svg xmlns="http://www.w3.org/2000/svg" xmlns:xlink="http://www.w3.org/1999/xlink" width="107.302" height="115.645" viewBox="0 0 107.302 115.645">
  <defs>
    <clipPath id="clip-path">
      <path id="Path_461" data-name="Path 461" d="M284.868,317.7a.532.532,0,0,0-.4.142.458.458,0,0,0-.171.369L284.47,419.2a.474.474,0,0,0,.455.483l76.668,9.889a.476.476,0,0,0,.54-.369l25.8-97.639a.493.493,0,0,0-.085-.4.66.66,0,0,0-.341-.227L284.868,317.7" transform="translate(-284.3 -317.7)"/>
    </clipPath>
  </defs>
  <g id="Group_193" data-name="Group 193" transform="translate(-278.3 -311.174)">
    <path id="Path_310" data-name="Path 310" d="M385.146,325.077a.631.631,0,0,1,.369.227.453.453,0,0,1,.057.426L359.145,426.439a.483.483,0,0,1-.568.369l-79.509-10.486a.52.52,0,0,1-.455-.512L278.3,311.693a.561.561,0,0,1,.171-.4.509.509,0,0,1,.4-.114l106.278,13.9" transform="translate(0 0)" fill="#1f1c14"/>
    <path id="Path_311" data-name="Path 311" d="M284.868,317.7a.532.532,0,0,0-.4.142.458.458,0,0,0-.171.369L284.47,419.2a.474.474,0,0,0,.455.483l76.668,9.889a.476.476,0,0,0,.54-.369l25.8-97.639a.493.493,0,0,0-.085-.4.66.66,0,0,0-.341-.227L284.868,317.7" transform="translate(-4.295 -4.672)" fill="#b12735"/>
    <path id="Path_312" data-name="Path 312" d="M387.921,327.123a.661.661,0,0,0-.341-.227l-36.941-4.774c-.71-.824-1.336-1.421-1.677-1.762-.512-.455-1.421-1.25-2.5-2.046a31.314,31.314,0,0,0-5.371-3.211,33.949,33.949,0,0,0-6.11-2.188,35.4,35.4,0,0,0-4.461-.8,36.138,36.138,0,0,0-4.092-.028,32.859,32.859,0,0,0-4.177.6c-.71.171-1.648.341-2.813.682-1.165.313-2.3.654-3.467,1.08-.369.142-2.046.824-2.387.966-.369.171-.995.4-1.478.6a27.881,27.881,0,0,1-2.7.8l-24.438-3.154a.532.532,0,0,0-.4.142.458.458,0,0,0-.171.369l.171,100.992a.474.474,0,0,0,.455.483l76.668,9.889a.476.476,0,0,0,.54-.369l25.774-97.639a.493.493,0,0,0-.085-.4" transform="translate(-4.367 -0.625)" fill="none"/>
    <path id="Path_313" data-name="Path 313" d="M381.235,381.015a7.763,7.763,0,0,0-1.023-1.307c-.2-.256-.682-.767-.8-.881-.114-.142-.171-.455.028-1.051a33.1,33.1,0,0,0,1.222-5.683,1.472,1.472,0,0,1,.852-1.307c.2-.057,1.506-.455,1.563-1.648a9.826,9.826,0,0,1,1.222-5.2,34.557,34.557,0,0,0,3.5-8.837c.54-2.87.057-4.831-.938-6a1.9,1.9,0,0,1-.256-2.3c.654-1.279,1.961-4.859,1.478-7.417-.114-.568-.313-.6-.426-.682a2.406,2.406,0,0,1-.739-1.62,26.764,26.764,0,0,0-3.438-11.367,22.214,22.214,0,0,0-4.149-5.257c-.511-.455-1.421-1.25-2.5-2.046a31.322,31.322,0,0,0-5.371-3.211,33.951,33.951,0,0,0-6.11-2.188,35.4,35.4,0,0,0-4.461-.8,36.114,36.114,0,0,0-4.092-.028,32.845,32.845,0,0,0-4.177.6c-.71.171-1.648.341-2.813.682-1.165.313-2.3.654-3.467,1.08-.369.142-2.046.824-2.387.966-.369.17-.995.4-1.478.6a25.605,25.605,0,0,1-3.723,1.023c-1.222.284-2.131.511-2.387.54s-1.108.256-1.222.8a2.672,2.672,0,0,0,.085,1.364,3.023,3.023,0,0,1-.426,2.614,21.545,21.545,0,0,1-5.4,5.257c-.682.426-1.364.654-1.819.966a2.254,2.254,0,0,0-.6,2.586c.426,1.336,1.392,2.586,1.762,3.779a10,10,0,0,1-.284,5.541,13.246,13.246,0,0,1-1.137,3.1,2.156,2.156,0,0,0-.341,2.16,10.065,10.065,0,0,0,2.131,2.842.771.771,0,0,1,.17,1.165,6.62,6.62,0,0,0-.483,4.206,24.855,24.855,0,0,0,1.62,4.916,26.911,26.911,0,0,0,2.387,4.064,3.439,3.439,0,0,1,.54,2.7A4.283,4.283,0,0,0,334.8,370.1c.966.767,1.08.625,1.421.995a2.012,2.012,0,0,1,.654,1.421,21.235,21.235,0,0,0,2.359,6.252,12.364,12.364,0,0,1,.654,1.222c.057.114.114.227-.142.682-.142.227-.483.966-.938,1.989h43.7A5.237,5.237,0,0,1,381.235,381.015Z" transform="translate(-34.735 -0.697)" fill="#1f1c14"/>
    <path id="Path_314" data-name="Path 314" d="M387.921,327.123a.661.661,0,0,0-.341-.227l-36.941-4.774c-.71-.824-1.336-1.421-1.677-1.762-.512-.455-1.421-1.25-2.5-2.046a31.314,31.314,0,0,0-5.371-3.211,33.949,33.949,0,0,0-6.11-2.188,35.4,35.4,0,0,0-4.461-.8,36.138,36.138,0,0,0-4.092-.028,32.859,32.859,0,0,0-4.177.6c-.71.171-1.648.341-2.813.682-1.165.313-2.3.654-3.467,1.08-.369.142-2.046.824-2.387.966-.369.171-.995.4-1.478.6a27.881,27.881,0,0,1-2.7.8l-24.438-3.154a.532.532,0,0,0-.4.142.458.458,0,0,0-.171.369l.171,100.992a.474.474,0,0,0,.455.483l76.668,9.889a.476.476,0,0,0,.54-.369l25.774-97.639a.493.493,0,0,0-.085-.4" transform="translate(-4.367 -0.625)" fill="none"/>
    <path id="Path_315" data-name="Path 315" d="M387.921,327.123a.661.661,0,0,0-.341-.227l-36.941-4.774c-.71-.824-1.336-1.421-1.677-1.762-.512-.455-1.421-1.25-2.5-2.046a31.314,31.314,0,0,0-5.371-3.211,33.949,33.949,0,0,0-6.11-2.188,35.4,35.4,0,0,0-4.461-.8,36.138,36.138,0,0,0-4.092-.028,32.859,32.859,0,0,0-4.177.6c-.71.171-1.648.341-2.813.682-1.165.313-2.3.654-3.467,1.08-.369.142-2.046.824-2.387.966-.369.171-.995.4-1.478.6a27.881,27.881,0,0,1-2.7.8l-24.438-3.154a.532.532,0,0,0-.4.142.458.458,0,0,0-.171.369l.171,100.992a.474.474,0,0,0,.455.483l76.668,9.889a.476.476,0,0,0,.54-.369l25.774-97.639a.493.493,0,0,0-.085-.4" transform="translate(-4.367 -0.625)" fill="none"/>
    <path id="Path_316" data-name="Path 316" d="M387.921,327.123a.661.661,0,0,0-.341-.227l-36.941-4.774c-.71-.824-1.336-1.421-1.677-1.762-.512-.455-1.421-1.25-2.5-2.046a31.314,31.314,0,0,0-5.371-3.211,33.949,33.949,0,0,0-6.11-2.188,35.4,35.4,0,0,0-4.461-.8,36.138,36.138,0,0,0-4.092-.028,32.859,32.859,0,0,0-4.177.6c-.71.171-1.648.341-2.813.682-1.165.313-2.3.654-3.467,1.08-.369.142-2.046.824-2.387.966-.369.171-.995.4-1.478.6a27.881,27.881,0,0,1-2.7.8l-24.438-3.154a.532.532,0,0,0-.4.142.458.458,0,0,0-.171.369l.171,100.992a.474.474,0,0,0,.455.483l76.668,9.889a.476.476,0,0,0,.54-.369l25.774-97.639a.493.493,0,0,0-.085-.4" transform="translate(-4.367 -0.625)" fill="none"/>
    <path id="Path_317" data-name="Path 317" d="M387.921,327.123a.661.661,0,0,0-.341-.227l-36.941-4.774c-.71-.824-1.336-1.421-1.677-1.762-.512-.455-1.421-1.25-2.5-2.046a31.314,31.314,0,0,0-5.371-3.211,33.949,33.949,0,0,0-6.11-2.188,35.4,35.4,0,0,0-4.461-.8,36.138,36.138,0,0,0-4.092-.028,32.859,32.859,0,0,0-4.177.6c-.71.171-1.648.341-2.813.682-1.165.313-2.3.654-3.467,1.08-.369.142-2.046.824-2.387.966-.369.171-.995.4-1.478.6a27.881,27.881,0,0,1-2.7.8l-24.438-3.154a.532.532,0,0,0-.4.142.458.458,0,0,0-.171.369l.171,100.992a.474.474,0,0,0,.455.483l76.668,9.889a.476.476,0,0,0,.54-.369l25.774-97.639a.493.493,0,0,0-.085-.4" transform="translate(-4.367 -0.625)" fill="none"/>
    <path id="Path_318" data-name="Path 318" d="M387.921,327.123a.661.661,0,0,0-.341-.227l-36.941-4.774c-.71-.824-1.336-1.421-1.677-1.762-.512-.455-1.421-1.25-2.5-2.046a31.314,31.314,0,0,0-5.371-3.211,33.949,33.949,0,0,0-6.11-2.188,35.4,35.4,0,0,0-4.461-.8,36.138,36.138,0,0,0-4.092-.028,32.859,32.859,0,0,0-4.177.6c-.71.171-1.648.341-2.813.682-1.165.313-2.3.654-3.467,1.08-.369.142-2.046.824-2.387.966-.369.171-.995.4-1.478.6a27.881,27.881,0,0,1-2.7.8l-24.438-3.154a.532.532,0,0,0-.4.142.458.458,0,0,0-.171.369l.171,100.992a.474.474,0,0,0,.455.483l76.668,9.889a.476.476,0,0,0,.54-.369l25.774-97.639a.493.493,0,0,0-.085-.4" transform="translate(-4.367 -0.625)" fill="none"/>
    <path id="Path_319" data-name="Path 319" d="M387.921,327.123a.661.661,0,0,0-.341-.227l-36.941-4.774c-.71-.824-1.336-1.421-1.677-1.762-.512-.455-1.421-1.25-2.5-2.046a31.314,31.314,0,0,0-5.371-3.211,33.949,33.949,0,0,0-6.11-2.188,35.4,35.4,0,0,0-4.461-.8,36.138,36.138,0,0,0-4.092-.028,32.859,32.859,0,0,0-4.177.6c-.71.171-1.648.341-2.813.682-1.165.313-2.3.654-3.467,1.08-.369.142-2.046.824-2.387.966-.369.171-.995.4-1.478.6a27.881,27.881,0,0,1-2.7.8l-24.438-3.154a.532.532,0,0,0-.4.142.458.458,0,0,0-.171.369l.171,100.992a.474.474,0,0,0,.455.483l76.668,9.889a.476.476,0,0,0,.54-.369l25.774-97.639a.493.493,0,0,0-.085-.4" transform="translate(-4.367 -0.625)" fill="none"/>
    <path id="Path_320" data-name="Path 320" d="M387.921,327.123a.661.661,0,0,0-.341-.227l-36.941-4.774c-.71-.824-1.336-1.421-1.677-1.762-.512-.455-1.421-1.25-2.5-2.046a31.314,31.314,0,0,0-5.371-3.211,33.949,33.949,0,0,0-6.11-2.188,35.4,35.4,0,0,0-4.461-.8,36.138,36.138,0,0,0-4.092-.028,32.859,32.859,0,0,0-4.177.6c-.71.171-1.648.341-2.813.682-1.165.313-2.3.654-3.467,1.08-.369.142-2.046.824-2.387.966-.369.171-.995.4-1.478.6a27.881,27.881,0,0,1-2.7.8l-24.438-3.154a.532.532,0,0,0-.4.142.458.458,0,0,0-.171.369l.171,100.992a.474.474,0,0,0,.455.483l76.668,9.889a.476.476,0,0,0,.54-.369l25.774-97.639a.493.493,0,0,0-.085-.4" transform="translate(-4.367 -0.625)" fill="none"/>
    <path id="Path_321" data-name="Path 321" d="M387.921,327.123a.661.661,0,0,0-.341-.227l-36.941-4.774c-.71-.824-1.336-1.421-1.677-1.762-.512-.455-1.421-1.25-2.5-2.046a31.314,31.314,0,0,0-5.371-3.211,33.949,33.949,0,0,0-6.11-2.188,35.4,35.4,0,0,0-4.461-.8,36.138,36.138,0,0,0-4.092-.028,32.859,32.859,0,0,0-4.177.6c-.71.171-1.648.341-2.813.682-1.165.313-2.3.654-3.467,1.08-.369.142-2.046.824-2.387.966-.369.171-.995.4-1.478.6a27.881,27.881,0,0,1-2.7.8l-24.438-3.154a.532.532,0,0,0-.4.142.458.458,0,0,0-.171.369l.171,100.992a.474.474,0,0,0,.455.483l76.668,9.889a.476.476,0,0,0,.54-.369l25.774-97.639a.493.493,0,0,0-.085-.4" transform="translate(-4.367 -0.625)" fill="none"/>
    <path id="Path_322" data-name="Path 322" d="M387.921,327.123a.661.661,0,0,0-.341-.227l-36.941-4.774c-.71-.824-1.336-1.421-1.677-1.762-.512-.455-1.421-1.25-2.5-2.046a31.314,31.314,0,0,0-5.371-3.211,33.949,33.949,0,0,0-6.11-2.188,35.4,35.4,0,0,0-4.461-.8,36.138,36.138,0,0,0-4.092-.028,32.859,32.859,0,0,0-4.177.6c-.71.171-1.648.341-2.813.682-1.165.313-2.3.654-3.467,1.08-.369.142-2.046.824-2.387.966-.369.171-.995.4-1.478.6a27.881,27.881,0,0,1-2.7.8l-24.438-3.154a.532.532,0,0,0-.4.142.458.458,0,0,0-.171.369l.171,100.992a.474.474,0,0,0,.455.483l76.668,9.889a.476.476,0,0,0,.54-.369l25.774-97.639a.493.493,0,0,0-.085-.4" transform="translate(-4.367 -0.625)" fill="none"/>
    <path id="Path_323" data-name="Path 323" d="M387.921,327.123a.661.661,0,0,0-.341-.227l-36.941-4.774c-.71-.824-1.336-1.421-1.677-1.762-.512-.455-1.421-1.25-2.5-2.046a31.314,31.314,0,0,0-5.371-3.211,33.949,33.949,0,0,0-6.11-2.188,35.4,35.4,0,0,0-4.461-.8,36.138,36.138,0,0,0-4.092-.028,32.859,32.859,0,0,0-4.177.6c-.71.171-1.648.341-2.813.682-1.165.313-2.3.654-3.467,1.08-.369.142-2.046.824-2.387.966-.369.171-.995.4-1.478.6a27.881,27.881,0,0,1-2.7.8l-24.438-3.154a.532.532,0,0,0-.4.142.458.458,0,0,0-.171.369l.171,100.992a.474.474,0,0,0,.455.483l76.668,9.889a.476.476,0,0,0,.54-.369l25.774-97.639a.493.493,0,0,0-.085-.4" transform="translate(-4.367 -0.625)" fill="none"/>
    <path id="Path_324" data-name="Path 324" d="M387.921,327.123a.661.661,0,0,0-.341-.227l-36.941-4.774c-.71-.824-1.336-1.421-1.677-1.762-.512-.455-1.421-1.25-2.5-2.046a31.314,31.314,0,0,0-5.371-3.211,33.949,33.949,0,0,0-6.11-2.188,35.4,35.4,0,0,0-4.461-.8,36.138,36.138,0,0,0-4.092-.028,32.859,32.859,0,0,0-4.177.6c-.71.171-1.648.341-2.813.682-1.165.313-2.3.654-3.467,1.08-.369.142-2.046.824-2.387.966-.369.171-.995.4-1.478.6a27.881,27.881,0,0,1-2.7.8l-24.438-3.154a.532.532,0,0,0-.4.142.458.458,0,0,0-.171.369l.171,100.992a.474.474,0,0,0,.455.483l76.668,9.889a.476.476,0,0,0,.54-.369l25.774-97.639a.493.493,0,0,0-.085-.4" transform="translate(-4.367 -0.625)" fill="none"/>
    <path id="Path_325" data-name="Path 325" d="M387.921,327.123a.661.661,0,0,0-.341-.227l-36.941-4.774c-.71-.824-1.336-1.421-1.677-1.762-.512-.455-1.421-1.25-2.5-2.046a31.314,31.314,0,0,0-5.371-3.211,33.949,33.949,0,0,0-6.11-2.188,35.4,35.4,0,0,0-4.461-.8,36.138,36.138,0,0,0-4.092-.028,32.859,32.859,0,0,0-4.177.6c-.71.171-1.648.341-2.813.682-1.165.313-2.3.654-3.467,1.08-.369.142-2.046.824-2.387.966-.369.171-.995.4-1.478.6a27.881,27.881,0,0,1-2.7.8l-24.438-3.154a.532.532,0,0,0-.4.142.458.458,0,0,0-.171.369l.171,100.992a.474.474,0,0,0,.455.483l76.668,9.889a.476.476,0,0,0,.54-.369l25.774-97.639a.493.493,0,0,0-.085-.4" transform="translate(-4.367 -0.625)" fill="none"/>
    <path id="Path_326" data-name="Path 326" d="M387.921,327.123a.661.661,0,0,0-.341-.227l-36.941-4.774c-.71-.824-1.336-1.421-1.677-1.762-.512-.455-1.421-1.25-2.5-2.046a31.314,31.314,0,0,0-5.371-3.211,33.949,33.949,0,0,0-6.11-2.188,35.4,35.4,0,0,0-4.461-.8,36.138,36.138,0,0,0-4.092-.028,32.859,32.859,0,0,0-4.177.6c-.71.171-1.648.341-2.813.682-1.165.313-2.3.654-3.467,1.08-.369.142-2.046.824-2.387.966-.369.171-.995.4-1.478.6a27.881,27.881,0,0,1-2.7.8l-24.438-3.154a.532.532,0,0,0-.4.142.458.458,0,0,0-.171.369l.171,100.992a.474.474,0,0,0,.455.483l76.668,9.889a.476.476,0,0,0,.54-.369l25.774-97.639a.493.493,0,0,0-.085-.4" transform="translate(-4.367 -0.625)" fill="none"/>
    <path id="Path_327" data-name="Path 327" d="M387.921,327.123a.661.661,0,0,0-.341-.227l-36.941-4.774c-.71-.824-1.336-1.421-1.677-1.762-.512-.455-1.421-1.25-2.5-2.046a31.314,31.314,0,0,0-5.371-3.211,33.949,33.949,0,0,0-6.11-2.188,35.4,35.4,0,0,0-4.461-.8,36.138,36.138,0,0,0-4.092-.028,32.859,32.859,0,0,0-4.177.6c-.71.171-1.648.341-2.813.682-1.165.313-2.3.654-3.467,1.08-.369.142-2.046.824-2.387.966-.369.171-.995.4-1.478.6a27.881,27.881,0,0,1-2.7.8l-24.438-3.154a.532.532,0,0,0-.4.142.458.458,0,0,0-.171.369l.171,100.992a.474.474,0,0,0,.455.483l76.668,9.889a.476.476,0,0,0,.54-.369l25.774-97.639a.493.493,0,0,0-.085-.4" transform="translate(-4.367 -0.625)" fill="none"/>
    <path id="Path_328" data-name="Path 328" d="M387.921,327.123a.661.661,0,0,0-.341-.227l-36.941-4.774c-.71-.824-1.336-1.421-1.677-1.762-.512-.455-1.421-1.25-2.5-2.046a31.314,31.314,0,0,0-5.371-3.211,33.949,33.949,0,0,0-6.11-2.188,35.4,35.4,0,0,0-4.461-.8,36.138,36.138,0,0,0-4.092-.028,32.859,32.859,0,0,0-4.177.6c-.71.171-1.648.341-2.813.682-1.165.313-2.3.654-3.467,1.08-.369.142-2.046.824-2.387.966-.369.171-.995.4-1.478.6a27.881,27.881,0,0,1-2.7.8l-24.438-3.154a.532.532,0,0,0-.4.142.458.458,0,0,0-.171.369l.171,100.992a.474.474,0,0,0,.455.483l76.668,9.889a.476.476,0,0,0,.54-.369l25.774-97.639a.493.493,0,0,0-.085-.4" transform="translate(-4.367 -0.625)" fill="none"/>
    <path id="Path_329" data-name="Path 329" d="M387.921,327.123a.661.661,0,0,0-.341-.227l-36.941-4.774c-.71-.824-1.336-1.421-1.677-1.762-.512-.455-1.421-1.25-2.5-2.046a31.314,31.314,0,0,0-5.371-3.211,33.949,33.949,0,0,0-6.11-2.188,35.4,35.4,0,0,0-4.461-.8,36.138,36.138,0,0,0-4.092-.028,32.859,32.859,0,0,0-4.177.6c-.71.171-1.648.341-2.813.682-1.165.313-2.3.654-3.467,1.08-.369.142-2.046.824-2.387.966-.369.171-.995.4-1.478.6a27.881,27.881,0,0,1-2.7.8l-24.438-3.154a.532.532,0,0,0-.4.142.458.458,0,0,0-.171.369l.171,100.992a.474.474,0,0,0,.455.483l76.668,9.889a.476.476,0,0,0,.54-.369l25.774-97.639a.493.493,0,0,0-.085-.4" transform="translate(-4.367 -0.625)" fill="none"/>
    <path id="Path_330" data-name="Path 330" d="M387.921,327.123a.661.661,0,0,0-.341-.227l-36.941-4.774c-.71-.824-1.336-1.421-1.677-1.762-.512-.455-1.421-1.25-2.5-2.046a31.314,31.314,0,0,0-5.371-3.211,33.949,33.949,0,0,0-6.11-2.188,35.4,35.4,0,0,0-4.461-.8,36.138,36.138,0,0,0-4.092-.028,32.859,32.859,0,0,0-4.177.6c-.71.171-1.648.341-2.813.682-1.165.313-2.3.654-3.467,1.08-.369.142-2.046.824-2.387.966-.369.171-.995.4-1.478.6a27.881,27.881,0,0,1-2.7.8l-24.438-3.154a.532.532,0,0,0-.4.142.458.458,0,0,0-.171.369l.171,100.992a.474.474,0,0,0,.455.483l76.668,9.889a.476.476,0,0,0,.54-.369l25.774-97.639a.493.493,0,0,0-.085-.4" transform="translate(-4.367 -0.625)" fill="none"/>
    <path id="Path_331" data-name="Path 331" d="M387.921,327.123a.661.661,0,0,0-.341-.227l-36.941-4.774c-.71-.824-1.336-1.421-1.677-1.762-.512-.455-1.421-1.25-2.5-2.046a31.314,31.314,0,0,0-5.371-3.211,33.949,33.949,0,0,0-6.11-2.188,35.4,35.4,0,0,0-4.461-.8,36.138,36.138,0,0,0-4.092-.028,32.859,32.859,0,0,0-4.177.6c-.71.171-1.648.341-2.813.682-1.165.313-2.3.654-3.467,1.08-.369.142-2.046.824-2.387.966-.369.171-.995.4-1.478.6a27.881,27.881,0,0,1-2.7.8l-24.438-3.154a.532.532,0,0,0-.4.142.458.458,0,0,0-.171.369l.171,100.992a.474.474,0,0,0,.455.483l76.668,9.889a.476.476,0,0,0,.54-.369l25.774-97.639a.493.493,0,0,0-.085-.4" transform="translate(-4.367 -0.625)" fill="none"/>
    <path id="Path_332" data-name="Path 332" d="M387.921,327.123a.661.661,0,0,0-.341-.227l-36.941-4.774c-.71-.824-1.336-1.421-1.677-1.762-.512-.455-1.421-1.25-2.5-2.046a31.314,31.314,0,0,0-5.371-3.211,33.949,33.949,0,0,0-6.11-2.188,35.4,35.4,0,0,0-4.461-.8,36.138,36.138,0,0,0-4.092-.028,32.859,32.859,0,0,0-4.177.6c-.71.171-1.648.341-2.813.682-1.165.313-2.3.654-3.467,1.08-.369.142-2.046.824-2.387.966-.369.171-.995.4-1.478.6a27.881,27.881,0,0,1-2.7.8l-24.438-3.154a.532.532,0,0,0-.4.142.458.458,0,0,0-.171.369l.171,100.992a.474.474,0,0,0,.455.483l76.668,9.889a.476.476,0,0,0,.54-.369l25.774-97.639a.493.493,0,0,0-.085-.4" transform="translate(-4.367 -0.625)" fill="none"/>
    <path id="Path_333" data-name="Path 333" d="M387.921,327.123a.661.661,0,0,0-.341-.227l-36.941-4.774c-.71-.824-1.336-1.421-1.677-1.762-.512-.455-1.421-1.25-2.5-2.046a31.314,31.314,0,0,0-5.371-3.211,33.949,33.949,0,0,0-6.11-2.188,35.4,35.4,0,0,0-4.461-.8,36.138,36.138,0,0,0-4.092-.028,32.859,32.859,0,0,0-4.177.6c-.71.171-1.648.341-2.813.682-1.165.313-2.3.654-3.467,1.08-.369.142-2.046.824-2.387.966-.369.171-.995.4-1.478.6a27.881,27.881,0,0,1-2.7.8l-24.438-3.154a.532.532,0,0,0-.4.142.458.458,0,0,0-.171.369l.171,100.992a.474.474,0,0,0,.455.483l76.668,9.889a.476.476,0,0,0,.54-.369l25.774-97.639a.493.493,0,0,0-.085-.4" transform="translate(-4.367 -0.625)" fill="none"/>
    <path id="Path_334" data-name="Path 334" d="M387.921,327.123a.661.661,0,0,0-.341-.227l-36.941-4.774c-.71-.824-1.336-1.421-1.677-1.762-.512-.455-1.421-1.25-2.5-2.046a31.314,31.314,0,0,0-5.371-3.211,33.949,33.949,0,0,0-6.11-2.188,35.4,35.4,0,0,0-4.461-.8,36.138,36.138,0,0,0-4.092-.028,32.859,32.859,0,0,0-4.177.6c-.71.171-1.648.341-2.813.682-1.165.313-2.3.654-3.467,1.08-.369.142-2.046.824-2.387.966-.369.171-.995.4-1.478.6a27.881,27.881,0,0,1-2.7.8l-24.438-3.154a.532.532,0,0,0-.4.142.458.458,0,0,0-.171.369l.171,100.992a.474.474,0,0,0,.455.483l76.668,9.889a.476.476,0,0,0,.54-.369l25.774-97.639a.493.493,0,0,0-.085-.4" transform="translate(-4.367 -0.625)" fill="none"/>
    <path id="Path_335" data-name="Path 335" d="M387.921,327.123a.661.661,0,0,0-.341-.227l-36.941-4.774c-.71-.824-1.336-1.421-1.677-1.762-.512-.455-1.421-1.25-2.5-2.046a31.314,31.314,0,0,0-5.371-3.211,33.949,33.949,0,0,0-6.11-2.188,35.4,35.4,0,0,0-4.461-.8,36.138,36.138,0,0,0-4.092-.028,32.859,32.859,0,0,0-4.177.6c-.71.171-1.648.341-2.813.682-1.165.313-2.3.654-3.467,1.08-.369.142-2.046.824-2.387.966-.369.171-.995.4-1.478.6a27.881,27.881,0,0,1-2.7.8l-24.438-3.154a.532.532,0,0,0-.4.142.458.458,0,0,0-.171.369l.171,100.992a.474.474,0,0,0,.455.483l76.668,9.889a.476.476,0,0,0,.54-.369l25.774-97.639a.493.493,0,0,0-.085-.4" transform="translate(-4.367 -0.625)" fill="none"/>
    <path id="Path_336" data-name="Path 336" d="M387.921,327.123a.661.661,0,0,0-.341-.227l-36.941-4.774c-.71-.824-1.336-1.421-1.677-1.762-.512-.455-1.421-1.25-2.5-2.046a31.314,31.314,0,0,0-5.371-3.211,33.949,33.949,0,0,0-6.11-2.188,35.4,35.4,0,0,0-4.461-.8,36.138,36.138,0,0,0-4.092-.028,32.859,32.859,0,0,0-4.177.6c-.71.171-1.648.341-2.813.682-1.165.313-2.3.654-3.467,1.08-.369.142-2.046.824-2.387.966-.369.171-.995.4-1.478.6a27.881,27.881,0,0,1-2.7.8l-24.438-3.154a.532.532,0,0,0-.4.142.458.458,0,0,0-.171.369l.171,100.992a.474.474,0,0,0,.455.483l76.668,9.889a.476.476,0,0,0,.54-.369l25.774-97.639a.493.493,0,0,0-.085-.4" transform="translate(-4.367 -0.625)" fill="none"/>
    <path id="Path_337" data-name="Path 337" d="M387.921,327.123a.661.661,0,0,0-.341-.227l-36.941-4.774c-.71-.824-1.336-1.421-1.677-1.762-.512-.455-1.421-1.25-2.5-2.046a31.314,31.314,0,0,0-5.371-3.211,33.949,33.949,0,0,0-6.11-2.188,35.4,35.4,0,0,0-4.461-.8,36.138,36.138,0,0,0-4.092-.028,32.859,32.859,0,0,0-4.177.6c-.71.171-1.648.341-2.813.682-1.165.313-2.3.654-3.467,1.08-.369.142-2.046.824-2.387.966-.369.171-.995.4-1.478.6a27.881,27.881,0,0,1-2.7.8l-24.438-3.154a.532.532,0,0,0-.4.142.458.458,0,0,0-.171.369l.171,100.992a.474.474,0,0,0,.455.483l76.668,9.889a.476.476,0,0,0,.54-.369l25.774-97.639a.493.493,0,0,0-.085-.4" transform="translate(-4.367 -0.625)" fill="none"/>
    <path id="Path_338" data-name="Path 338" d="M387.921,327.123a.661.661,0,0,0-.341-.227l-36.941-4.774c-.71-.824-1.336-1.421-1.677-1.762-.512-.455-1.421-1.25-2.5-2.046a31.314,31.314,0,0,0-5.371-3.211,33.949,33.949,0,0,0-6.11-2.188,35.4,35.4,0,0,0-4.461-.8,36.138,36.138,0,0,0-4.092-.028,32.859,32.859,0,0,0-4.177.6c-.71.171-1.648.341-2.813.682-1.165.313-2.3.654-3.467,1.08-.369.142-2.046.824-2.387.966-.369.171-.995.4-1.478.6a27.881,27.881,0,0,1-2.7.8l-24.438-3.154a.532.532,0,0,0-.4.142.458.458,0,0,0-.171.369l.171,100.992a.474.474,0,0,0,.455.483l76.668,9.889a.476.476,0,0,0,.54-.369l25.774-97.639a.493.493,0,0,0-.085-.4" transform="translate(-4.367 -0.625)" fill="none"/>
    <path id="Path_339" data-name="Path 339" d="M387.921,327.123a.661.661,0,0,0-.341-.227l-36.941-4.774c-.71-.824-1.336-1.421-1.677-1.762-.512-.455-1.421-1.25-2.5-2.046a31.314,31.314,0,0,0-5.371-3.211,33.949,33.949,0,0,0-6.11-2.188,35.4,35.4,0,0,0-4.461-.8,36.138,36.138,0,0,0-4.092-.028,32.859,32.859,0,0,0-4.177.6c-.71.171-1.648.341-2.813.682-1.165.313-2.3.654-3.467,1.08-.369.142-2.046.824-2.387.966-.369.171-.995.4-1.478.6a27.881,27.881,0,0,1-2.7.8l-24.438-3.154a.532.532,0,0,0-.4.142.458.458,0,0,0-.171.369l.171,100.992a.474.474,0,0,0,.455.483l76.668,9.889a.476.476,0,0,0,.54-.369l25.774-97.639a.493.493,0,0,0-.085-.4" transform="translate(-4.367 -0.625)" fill="none"/>
    <path id="Path_340" data-name="Path 340" d="M387.921,327.123a.661.661,0,0,0-.341-.227l-36.941-4.774c-.71-.824-1.336-1.421-1.677-1.762-.512-.455-1.421-1.25-2.5-2.046a31.314,31.314,0,0,0-5.371-3.211,33.949,33.949,0,0,0-6.11-2.188,35.4,35.4,0,0,0-4.461-.8,36.138,36.138,0,0,0-4.092-.028,32.859,32.859,0,0,0-4.177.6c-.71.171-1.648.341-2.813.682-1.165.313-2.3.654-3.467,1.08-.369.142-2.046.824-2.387.966-.369.171-.995.4-1.478.6a27.881,27.881,0,0,1-2.7.8l-24.438-3.154a.532.532,0,0,0-.4.142.458.458,0,0,0-.171.369l.171,100.992a.474.474,0,0,0,.455.483l76.668,9.889a.476.476,0,0,0,.54-.369l25.774-97.639a.493.493,0,0,0-.085-.4" transform="translate(-4.367 -0.625)" fill="none"/>
    <path id="Path_341" data-name="Path 341" d="M387.921,327.123a.661.661,0,0,0-.341-.227l-36.941-4.774c-.71-.824-1.336-1.421-1.677-1.762-.512-.455-1.421-1.25-2.5-2.046a31.314,31.314,0,0,0-5.371-3.211,33.949,33.949,0,0,0-6.11-2.188,35.4,35.4,0,0,0-4.461-.8,36.138,36.138,0,0,0-4.092-.028,32.859,32.859,0,0,0-4.177.6c-.71.171-1.648.341-2.813.682-1.165.313-2.3.654-3.467,1.08-.369.142-2.046.824-2.387.966-.369.171-.995.4-1.478.6a27.881,27.881,0,0,1-2.7.8l-24.438-3.154a.532.532,0,0,0-.4.142.458.458,0,0,0-.171.369l.171,100.992a.474.474,0,0,0,.455.483l76.668,9.889a.476.476,0,0,0,.54-.369l25.774-97.639a.493.493,0,0,0-.085-.4" transform="translate(-4.367 -0.625)" fill="none"/>
    <path id="Path_342" data-name="Path 342" d="M387.921,327.123a.661.661,0,0,0-.341-.227l-36.941-4.774c-.71-.824-1.336-1.421-1.677-1.762-.512-.455-1.421-1.25-2.5-2.046a31.314,31.314,0,0,0-5.371-3.211,33.949,33.949,0,0,0-6.11-2.188,35.4,35.4,0,0,0-4.461-.8,36.138,36.138,0,0,0-4.092-.028,32.859,32.859,0,0,0-4.177.6c-.71.171-1.648.341-2.813.682-1.165.313-2.3.654-3.467,1.08-.369.142-2.046.824-2.387.966-.369.171-.995.4-1.478.6a27.881,27.881,0,0,1-2.7.8l-24.438-3.154a.532.532,0,0,0-.4.142.458.458,0,0,0-.171.369l.171,100.992a.474.474,0,0,0,.455.483l76.668,9.889a.476.476,0,0,0,.54-.369l25.774-97.639a.493.493,0,0,0-.085-.4" transform="translate(-4.367 -0.625)" fill="none"/>
    <path id="Path_343" data-name="Path 343" d="M387.921,327.123a.661.661,0,0,0-.341-.227l-36.941-4.774c-.71-.824-1.336-1.421-1.677-1.762-.512-.455-1.421-1.25-2.5-2.046a31.314,31.314,0,0,0-5.371-3.211,33.949,33.949,0,0,0-6.11-2.188,35.4,35.4,0,0,0-4.461-.8,36.138,36.138,0,0,0-4.092-.028,32.859,32.859,0,0,0-4.177.6c-.71.171-1.648.341-2.813.682-1.165.313-2.3.654-3.467,1.08-.369.142-2.046.824-2.387.966-.369.171-.995.4-1.478.6a27.881,27.881,0,0,1-2.7.8l-24.438-3.154a.532.532,0,0,0-.4.142.458.458,0,0,0-.171.369l.171,100.992a.474.474,0,0,0,.455.483l76.668,9.889a.476.476,0,0,0,.54-.369l25.774-97.639a.493.493,0,0,0-.085-.4" transform="translate(-4.367 -0.625)" fill="none"/>
    <path id="Path_344" data-name="Path 344" d="M387.921,327.123a.661.661,0,0,0-.341-.227l-36.941-4.774c-.71-.824-1.336-1.421-1.677-1.762-.512-.455-1.421-1.25-2.5-2.046a31.314,31.314,0,0,0-5.371-3.211,33.949,33.949,0,0,0-6.11-2.188,35.4,35.4,0,0,0-4.461-.8,36.138,36.138,0,0,0-4.092-.028,32.859,32.859,0,0,0-4.177.6c-.71.171-1.648.341-2.813.682-1.165.313-2.3.654-3.467,1.08-.369.142-2.046.824-2.387.966-.369.171-.995.4-1.478.6a27.881,27.881,0,0,1-2.7.8l-24.438-3.154a.532.532,0,0,0-.4.142.458.458,0,0,0-.171.369l.171,100.992a.474.474,0,0,0,.455.483l76.668,9.889a.476.476,0,0,0,.54-.369l25.774-97.639a.493.493,0,0,0-.085-.4" transform="translate(-4.367 -0.625)" fill="none"/>
    <path id="Path_345" data-name="Path 345" d="M387.921,327.123a.661.661,0,0,0-.341-.227l-36.941-4.774c-.71-.824-1.336-1.421-1.677-1.762-.512-.455-1.421-1.25-2.5-2.046a31.314,31.314,0,0,0-5.371-3.211,33.949,33.949,0,0,0-6.11-2.188,35.4,35.4,0,0,0-4.461-.8,36.138,36.138,0,0,0-4.092-.028,32.859,32.859,0,0,0-4.177.6c-.71.171-1.648.341-2.813.682-1.165.313-2.3.654-3.467,1.08-.369.142-2.046.824-2.387.966-.369.171-.995.4-1.478.6a27.881,27.881,0,0,1-2.7.8l-24.438-3.154a.532.532,0,0,0-.4.142.458.458,0,0,0-.171.369l.171,100.992a.474.474,0,0,0,.455.483l76.668,9.889a.476.476,0,0,0,.54-.369l25.774-97.639a.493.493,0,0,0-.085-.4" transform="translate(-4.367 -0.625)" fill="none"/>
    <path id="Path_346" data-name="Path 346" d="M387.921,327.123a.661.661,0,0,0-.341-.227l-36.941-4.774c-.71-.824-1.336-1.421-1.677-1.762-.512-.455-1.421-1.25-2.5-2.046a31.314,31.314,0,0,0-5.371-3.211,33.949,33.949,0,0,0-6.11-2.188,35.4,35.4,0,0,0-4.461-.8,36.138,36.138,0,0,0-4.092-.028,32.859,32.859,0,0,0-4.177.6c-.71.171-1.648.341-2.813.682-1.165.313-2.3.654-3.467,1.08-.369.142-2.046.824-2.387.966-.369.171-.995.4-1.478.6a27.881,27.881,0,0,1-2.7.8l-24.438-3.154a.532.532,0,0,0-.4.142.458.458,0,0,0-.171.369l.171,100.992a.474.474,0,0,0,.455.483l76.668,9.889a.476.476,0,0,0,.54-.369l25.774-97.639a.493.493,0,0,0-.085-.4" transform="translate(-4.367 -0.625)" fill="none"/>
    <path id="Path_347" data-name="Path 347" d="M387.921,327.123a.661.661,0,0,0-.341-.227l-36.941-4.774c-.71-.824-1.336-1.421-1.677-1.762-.512-.455-1.421-1.25-2.5-2.046a31.314,31.314,0,0,0-5.371-3.211,33.949,33.949,0,0,0-6.11-2.188,35.4,35.4,0,0,0-4.461-.8,36.138,36.138,0,0,0-4.092-.028,32.859,32.859,0,0,0-4.177.6c-.71.171-1.648.341-2.813.682-1.165.313-2.3.654-3.467,1.08-.369.142-2.046.824-2.387.966-.369.171-.995.4-1.478.6a27.881,27.881,0,0,1-2.7.8l-24.438-3.154a.532.532,0,0,0-.4.142.458.458,0,0,0-.171.369l.171,100.992a.474.474,0,0,0,.455.483l76.668,9.889a.476.476,0,0,0,.54-.369l25.774-97.639a.493.493,0,0,0-.085-.4" transform="translate(-4.367 -0.625)" fill="none"/>
    <path id="Path_348" data-name="Path 348" d="M387.921,327.123a.661.661,0,0,0-.341-.227l-36.941-4.774c-.71-.824-1.336-1.421-1.677-1.762-.512-.455-1.421-1.25-2.5-2.046a31.314,31.314,0,0,0-5.371-3.211,33.949,33.949,0,0,0-6.11-2.188,35.4,35.4,0,0,0-4.461-.8,36.138,36.138,0,0,0-4.092-.028,32.859,32.859,0,0,0-4.177.6c-.71.171-1.648.341-2.813.682-1.165.313-2.3.654-3.467,1.08-.369.142-2.046.824-2.387.966-.369.171-.995.4-1.478.6a27.881,27.881,0,0,1-2.7.8l-24.438-3.154a.532.532,0,0,0-.4.142.458.458,0,0,0-.171.369l.171,100.992a.474.474,0,0,0,.455.483l76.668,9.889a.476.476,0,0,0,.54-.369l25.774-97.639a.493.493,0,0,0-.085-.4" transform="translate(-4.367 -0.625)" fill="none"/>
    <path id="Path_349" data-name="Path 349" d="M387.921,327.123a.661.661,0,0,0-.341-.227l-36.941-4.774c-.71-.824-1.336-1.421-1.677-1.762-.512-.455-1.421-1.25-2.5-2.046a31.314,31.314,0,0,0-5.371-3.211,33.949,33.949,0,0,0-6.11-2.188,35.4,35.4,0,0,0-4.461-.8,36.138,36.138,0,0,0-4.092-.028,32.859,32.859,0,0,0-4.177.6c-.71.171-1.648.341-2.813.682-1.165.313-2.3.654-3.467,1.08-.369.142-2.046.824-2.387.966-.369.171-.995.4-1.478.6a27.881,27.881,0,0,1-2.7.8l-24.438-3.154a.532.532,0,0,0-.4.142.458.458,0,0,0-.171.369l.171,100.992a.474.474,0,0,0,.455.483l76.668,9.889a.476.476,0,0,0,.54-.369l25.774-97.639a.493.493,0,0,0-.085-.4" transform="translate(-4.367 -0.625)" fill="none"/>
    <path id="Path_350" data-name="Path 350" d="M387.921,327.123a.661.661,0,0,0-.341-.227l-36.941-4.774c-.71-.824-1.336-1.421-1.677-1.762-.512-.455-1.421-1.25-2.5-2.046a31.314,31.314,0,0,0-5.371-3.211,33.949,33.949,0,0,0-6.11-2.188,35.4,35.4,0,0,0-4.461-.8,36.138,36.138,0,0,0-4.092-.028,32.859,32.859,0,0,0-4.177.6c-.71.171-1.648.341-2.813.682-1.165.313-2.3.654-3.467,1.08-.369.142-2.046.824-2.387.966-.369.171-.995.4-1.478.6a27.881,27.881,0,0,1-2.7.8l-24.438-3.154a.532.532,0,0,0-.4.142.458.458,0,0,0-.171.369l.171,100.992a.474.474,0,0,0,.455.483l76.668,9.889a.476.476,0,0,0,.54-.369l25.774-97.639a.493.493,0,0,0-.085-.4" transform="translate(-4.367 -0.625)" fill="none"/>
    <path id="Path_351" data-name="Path 351" d="M387.921,327.123a.661.661,0,0,0-.341-.227l-36.941-4.774c-.71-.824-1.336-1.421-1.677-1.762-.512-.455-1.421-1.25-2.5-2.046a31.314,31.314,0,0,0-5.371-3.211,33.949,33.949,0,0,0-6.11-2.188,35.4,35.4,0,0,0-4.461-.8,36.138,36.138,0,0,0-4.092-.028,32.859,32.859,0,0,0-4.177.6c-.71.171-1.648.341-2.813.682-1.165.313-2.3.654-3.467,1.08-.369.142-2.046.824-2.387.966-.369.171-.995.4-1.478.6a27.881,27.881,0,0,1-2.7.8l-24.438-3.154a.532.532,0,0,0-.4.142.458.458,0,0,0-.171.369l.171,100.992a.474.474,0,0,0,.455.483l76.668,9.889a.476.476,0,0,0,.54-.369l25.774-97.639a.493.493,0,0,0-.085-.4" transform="translate(-4.367 -0.625)" fill="none"/>
    <path id="Path_352" data-name="Path 352" d="M387.921,327.123a.661.661,0,0,0-.341-.227l-36.941-4.774c-.71-.824-1.336-1.421-1.677-1.762-.512-.455-1.421-1.25-2.5-2.046a31.314,31.314,0,0,0-5.371-3.211,33.949,33.949,0,0,0-6.11-2.188,35.4,35.4,0,0,0-4.461-.8,36.138,36.138,0,0,0-4.092-.028,32.859,32.859,0,0,0-4.177.6c-.71.171-1.648.341-2.813.682-1.165.313-2.3.654-3.467,1.08-.369.142-2.046.824-2.387.966-.369.171-.995.4-1.478.6a27.881,27.881,0,0,1-2.7.8l-24.438-3.154a.532.532,0,0,0-.4.142.458.458,0,0,0-.171.369l.171,100.992a.474.474,0,0,0,.455.483l76.668,9.889a.476.476,0,0,0,.54-.369l25.774-97.639a.493.493,0,0,0-.085-.4" transform="translate(-4.367 -0.625)" fill="none"/>
    <path id="Path_353" data-name="Path 353" d="M387.921,327.123a.661.661,0,0,0-.341-.227l-36.941-4.774c-.71-.824-1.336-1.421-1.677-1.762-.512-.455-1.421-1.25-2.5-2.046a31.314,31.314,0,0,0-5.371-3.211,33.949,33.949,0,0,0-6.11-2.188,35.4,35.4,0,0,0-4.461-.8,36.138,36.138,0,0,0-4.092-.028,32.859,32.859,0,0,0-4.177.6c-.71.171-1.648.341-2.813.682-1.165.313-2.3.654-3.467,1.08-.369.142-2.046.824-2.387.966-.369.171-.995.4-1.478.6a27.881,27.881,0,0,1-2.7.8l-24.438-3.154a.532.532,0,0,0-.4.142.458.458,0,0,0-.171.369l.171,100.992a.474.474,0,0,0,.455.483l76.668,9.889a.476.476,0,0,0,.54-.369l25.774-97.639a.493.493,0,0,0-.085-.4" transform="translate(-4.367 -0.625)" fill="none"/>
    <path id="Path_354" data-name="Path 354" d="M387.921,327.123a.661.661,0,0,0-.341-.227l-36.941-4.774c-.71-.824-1.336-1.421-1.677-1.762-.512-.455-1.421-1.25-2.5-2.046a31.314,31.314,0,0,0-5.371-3.211,33.949,33.949,0,0,0-6.11-2.188,35.4,35.4,0,0,0-4.461-.8,36.138,36.138,0,0,0-4.092-.028,32.859,32.859,0,0,0-4.177.6c-.71.171-1.648.341-2.813.682-1.165.313-2.3.654-3.467,1.08-.369.142-2.046.824-2.387.966-.369.171-.995.4-1.478.6a27.881,27.881,0,0,1-2.7.8l-24.438-3.154a.532.532,0,0,0-.4.142.458.458,0,0,0-.171.369l.171,100.992a.474.474,0,0,0,.455.483l76.668,9.889a.476.476,0,0,0,.54-.369l25.774-97.639a.493.493,0,0,0-.085-.4" transform="translate(-4.367 -0.625)" fill="none"/>
    <path id="Path_355" data-name="Path 355" d="M387.921,327.123a.661.661,0,0,0-.341-.227l-36.941-4.774c-.71-.824-1.336-1.421-1.677-1.762-.512-.455-1.421-1.25-2.5-2.046a31.314,31.314,0,0,0-5.371-3.211,33.949,33.949,0,0,0-6.11-2.188,35.4,35.4,0,0,0-4.461-.8,36.138,36.138,0,0,0-4.092-.028,32.859,32.859,0,0,0-4.177.6c-.71.171-1.648.341-2.813.682-1.165.313-2.3.654-3.467,1.08-.369.142-2.046.824-2.387.966-.369.171-.995.4-1.478.6a27.881,27.881,0,0,1-2.7.8l-24.438-3.154a.532.532,0,0,0-.4.142.458.458,0,0,0-.171.369l.171,100.992a.474.474,0,0,0,.455.483l76.668,9.889a.476.476,0,0,0,.54-.369l25.774-97.639a.493.493,0,0,0-.085-.4" transform="translate(-4.367 -0.625)" fill="none"/>
    <path id="Path_356" data-name="Path 356" d="M387.921,327.123a.661.661,0,0,0-.341-.227l-36.941-4.774c-.71-.824-1.336-1.421-1.677-1.762-.512-.455-1.421-1.25-2.5-2.046a31.314,31.314,0,0,0-5.371-3.211,33.949,33.949,0,0,0-6.11-2.188,35.4,35.4,0,0,0-4.461-.8,36.138,36.138,0,0,0-4.092-.028,32.859,32.859,0,0,0-4.177.6c-.71.171-1.648.341-2.813.682-1.165.313-2.3.654-3.467,1.08-.369.142-2.046.824-2.387.966-.369.171-.995.4-1.478.6a27.881,27.881,0,0,1-2.7.8l-24.438-3.154a.532.532,0,0,0-.4.142.458.458,0,0,0-.171.369l.171,100.992a.474.474,0,0,0,.455.483l76.668,9.889a.476.476,0,0,0,.54-.369l25.774-97.639a.493.493,0,0,0-.085-.4" transform="translate(-4.367 -0.625)" fill="none"/>
    <path id="Path_357" data-name="Path 357" d="M387.921,327.123a.661.661,0,0,0-.341-.227l-36.941-4.774c-.71-.824-1.336-1.421-1.677-1.762-.512-.455-1.421-1.25-2.5-2.046a31.314,31.314,0,0,0-5.371-3.211,33.949,33.949,0,0,0-6.11-2.188,35.4,35.4,0,0,0-4.461-.8,36.138,36.138,0,0,0-4.092-.028,32.859,32.859,0,0,0-4.177.6c-.71.171-1.648.341-2.813.682-1.165.313-2.3.654-3.467,1.08-.369.142-2.046.824-2.387.966-.369.171-.995.4-1.478.6a27.881,27.881,0,0,1-2.7.8l-24.438-3.154a.532.532,0,0,0-.4.142.458.458,0,0,0-.171.369l.171,100.992a.474.474,0,0,0,.455.483l76.668,9.889a.476.476,0,0,0,.54-.369l25.774-97.639a.493.493,0,0,0-.085-.4" transform="translate(-4.367 -0.625)" fill="none"/>
    <path id="Path_358" data-name="Path 358" d="M387.921,327.123a.661.661,0,0,0-.341-.227l-36.941-4.774c-.71-.824-1.336-1.421-1.677-1.762-.512-.455-1.421-1.25-2.5-2.046a31.314,31.314,0,0,0-5.371-3.211,33.949,33.949,0,0,0-6.11-2.188,35.4,35.4,0,0,0-4.461-.8,36.138,36.138,0,0,0-4.092-.028,32.859,32.859,0,0,0-4.177.6c-.71.171-1.648.341-2.813.682-1.165.313-2.3.654-3.467,1.08-.369.142-2.046.824-2.387.966-.369.171-.995.4-1.478.6a27.881,27.881,0,0,1-2.7.8l-24.438-3.154a.532.532,0,0,0-.4.142.458.458,0,0,0-.171.369l.171,100.992a.474.474,0,0,0,.455.483l76.668,9.889a.476.476,0,0,0,.54-.369l25.774-97.639a.493.493,0,0,0-.085-.4" transform="translate(-4.367 -0.625)" fill="none"/>
    <path id="Path_359" data-name="Path 359" d="M387.921,327.123a.661.661,0,0,0-.341-.227l-36.941-4.774c-.71-.824-1.336-1.421-1.677-1.762-.512-.455-1.421-1.25-2.5-2.046a31.314,31.314,0,0,0-5.371-3.211,33.949,33.949,0,0,0-6.11-2.188,35.4,35.4,0,0,0-4.461-.8,36.138,36.138,0,0,0-4.092-.028,32.859,32.859,0,0,0-4.177.6c-.71.171-1.648.341-2.813.682-1.165.313-2.3.654-3.467,1.08-.369.142-2.046.824-2.387.966-.369.171-.995.4-1.478.6a27.881,27.881,0,0,1-2.7.8l-24.438-3.154a.532.532,0,0,0-.4.142.458.458,0,0,0-.171.369l.171,100.992a.474.474,0,0,0,.455.483l76.668,9.889a.476.476,0,0,0,.54-.369l25.774-97.639a.493.493,0,0,0-.085-.4" transform="translate(-4.367 -0.625)" fill="none"/>
    <path id="Path_360" data-name="Path 360" d="M387.921,327.123a.661.661,0,0,0-.341-.227l-36.941-4.774c-.71-.824-1.336-1.421-1.677-1.762-.512-.455-1.421-1.25-2.5-2.046a31.314,31.314,0,0,0-5.371-3.211,33.949,33.949,0,0,0-6.11-2.188,35.4,35.4,0,0,0-4.461-.8,36.138,36.138,0,0,0-4.092-.028,32.859,32.859,0,0,0-4.177.6c-.71.171-1.648.341-2.813.682-1.165.313-2.3.654-3.467,1.08-.369.142-2.046.824-2.387.966-.369.171-.995.4-1.478.6a27.881,27.881,0,0,1-2.7.8l-24.438-3.154a.532.532,0,0,0-.4.142.458.458,0,0,0-.171.369l.171,100.992a.474.474,0,0,0,.455.483l76.668,9.889a.476.476,0,0,0,.54-.369l25.774-97.639a.493.493,0,0,0-.085-.4" transform="translate(-4.367 -0.625)" fill="none"/>
    <path id="Path_361" data-name="Path 361" d="M387.921,327.123a.661.661,0,0,0-.341-.227l-36.941-4.774c-.71-.824-1.336-1.421-1.677-1.762-.512-.455-1.421-1.25-2.5-2.046a31.314,31.314,0,0,0-5.371-3.211,33.949,33.949,0,0,0-6.11-2.188,35.4,35.4,0,0,0-4.461-.8,36.138,36.138,0,0,0-4.092-.028,32.859,32.859,0,0,0-4.177.6c-.71.171-1.648.341-2.813.682-1.165.313-2.3.654-3.467,1.08-.369.142-2.046.824-2.387.966-.369.171-.995.4-1.478.6a27.881,27.881,0,0,1-2.7.8l-24.438-3.154a.532.532,0,0,0-.4.142.458.458,0,0,0-.171.369l.171,100.992a.474.474,0,0,0,.455.483l76.668,9.889a.476.476,0,0,0,.54-.369l25.774-97.639a.493.493,0,0,0-.085-.4" transform="translate(-4.367 -0.625)" fill="none"/>
    <path id="Path_362" data-name="Path 362" d="M387.921,327.123a.661.661,0,0,0-.341-.227l-36.941-4.774c-.71-.824-1.336-1.421-1.677-1.762-.512-.455-1.421-1.25-2.5-2.046a31.314,31.314,0,0,0-5.371-3.211,33.949,33.949,0,0,0-6.11-2.188,35.4,35.4,0,0,0-4.461-.8,36.138,36.138,0,0,0-4.092-.028,32.859,32.859,0,0,0-4.177.6c-.71.171-1.648.341-2.813.682-1.165.313-2.3.654-3.467,1.08-.369.142-2.046.824-2.387.966-.369.171-.995.4-1.478.6a27.881,27.881,0,0,1-2.7.8l-24.438-3.154a.532.532,0,0,0-.4.142.458.458,0,0,0-.171.369l.171,100.992a.474.474,0,0,0,.455.483l76.668,9.889a.476.476,0,0,0,.54-.369l25.774-97.639a.493.493,0,0,0-.085-.4" transform="translate(-4.367 -0.625)" fill="none"/>
    <path id="Path_363" data-name="Path 363" d="M387.921,327.123a.661.661,0,0,0-.341-.227l-36.941-4.774c-.71-.824-1.336-1.421-1.677-1.762-.512-.455-1.421-1.25-2.5-2.046a31.314,31.314,0,0,0-5.371-3.211,33.949,33.949,0,0,0-6.11-2.188,35.4,35.4,0,0,0-4.461-.8,36.138,36.138,0,0,0-4.092-.028,32.859,32.859,0,0,0-4.177.6c-.71.171-1.648.341-2.813.682-1.165.313-2.3.654-3.467,1.08-.369.142-2.046.824-2.387.966-.369.171-.995.4-1.478.6a27.881,27.881,0,0,1-2.7.8l-24.438-3.154a.532.532,0,0,0-.4.142.458.458,0,0,0-.171.369l.171,100.992a.474.474,0,0,0,.455.483l76.668,9.889a.476.476,0,0,0,.54-.369l25.774-97.639a.493.493,0,0,0-.085-.4" transform="translate(-4.367 -0.625)" fill="none"/>
    <path id="Path_364" data-name="Path 364" d="M387.921,327.123a.661.661,0,0,0-.341-.227l-36.941-4.774c-.71-.824-1.336-1.421-1.677-1.762-.512-.455-1.421-1.25-2.5-2.046a31.314,31.314,0,0,0-5.371-3.211,33.949,33.949,0,0,0-6.11-2.188,35.4,35.4,0,0,0-4.461-.8,36.138,36.138,0,0,0-4.092-.028,32.859,32.859,0,0,0-4.177.6c-.71.171-1.648.341-2.813.682-1.165.313-2.3.654-3.467,1.08-.369.142-2.046.824-2.387.966-.369.171-.995.4-1.478.6a27.881,27.881,0,0,1-2.7.8l-24.438-3.154a.532.532,0,0,0-.4.142.458.458,0,0,0-.171.369l.171,100.992a.474.474,0,0,0,.455.483l76.668,9.889a.476.476,0,0,0,.54-.369l25.774-97.639a.493.493,0,0,0-.085-.4" transform="translate(-4.367 -0.625)" fill="none"/>
    <path id="Path_365" data-name="Path 365" d="M387.921,327.123a.661.661,0,0,0-.341-.227l-36.941-4.774c-.71-.824-1.336-1.421-1.677-1.762-.512-.455-1.421-1.25-2.5-2.046a31.314,31.314,0,0,0-5.371-3.211,33.949,33.949,0,0,0-6.11-2.188,35.4,35.4,0,0,0-4.461-.8,36.138,36.138,0,0,0-4.092-.028,32.859,32.859,0,0,0-4.177.6c-.71.171-1.648.341-2.813.682-1.165.313-2.3.654-3.467,1.08-.369.142-2.046.824-2.387.966-.369.171-.995.4-1.478.6a27.881,27.881,0,0,1-2.7.8l-24.438-3.154a.532.532,0,0,0-.4.142.458.458,0,0,0-.171.369l.171,100.992a.474.474,0,0,0,.455.483l76.668,9.889a.476.476,0,0,0,.54-.369l25.774-97.639a.493.493,0,0,0-.085-.4" transform="translate(-4.367 -0.625)" fill="none"/>
    <path id="Path_366" data-name="Path 366" d="M387.921,327.123a.661.661,0,0,0-.341-.227l-36.941-4.774c-.71-.824-1.336-1.421-1.677-1.762-.512-.455-1.421-1.25-2.5-2.046a31.314,31.314,0,0,0-5.371-3.211,33.949,33.949,0,0,0-6.11-2.188,35.4,35.4,0,0,0-4.461-.8,36.138,36.138,0,0,0-4.092-.028,32.859,32.859,0,0,0-4.177.6c-.71.171-1.648.341-2.813.682-1.165.313-2.3.654-3.467,1.08-.369.142-2.046.824-2.387.966-.369.171-.995.4-1.478.6a27.881,27.881,0,0,1-2.7.8l-24.438-3.154a.532.532,0,0,0-.4.142.458.458,0,0,0-.171.369l.171,100.992a.474.474,0,0,0,.455.483l76.668,9.889a.476.476,0,0,0,.54-.369l25.774-97.639a.493.493,0,0,0-.085-.4" transform="translate(-4.367 -0.625)" fill="none"/>
    <path id="Path_367" data-name="Path 367" d="M387.921,327.123a.661.661,0,0,0-.341-.227l-36.941-4.774c-.71-.824-1.336-1.421-1.677-1.762-.512-.455-1.421-1.25-2.5-2.046a31.314,31.314,0,0,0-5.371-3.211,33.949,33.949,0,0,0-6.11-2.188,35.4,35.4,0,0,0-4.461-.8,36.138,36.138,0,0,0-4.092-.028,32.859,32.859,0,0,0-4.177.6c-.71.171-1.648.341-2.813.682-1.165.313-2.3.654-3.467,1.08-.369.142-2.046.824-2.387.966-.369.171-.995.4-1.478.6a27.881,27.881,0,0,1-2.7.8l-24.438-3.154a.532.532,0,0,0-.4.142.458.458,0,0,0-.171.369l.171,100.992a.474.474,0,0,0,.455.483l76.668,9.889a.476.476,0,0,0,.54-.369l25.774-97.639a.493.493,0,0,0-.085-.4" transform="translate(-4.367 -0.625)" fill="none"/>
    <path id="Path_368" data-name="Path 368" d="M387.921,327.123a.661.661,0,0,0-.341-.227l-36.941-4.774c-.71-.824-1.336-1.421-1.677-1.762-.512-.455-1.421-1.25-2.5-2.046a31.314,31.314,0,0,0-5.371-3.211,33.949,33.949,0,0,0-6.11-2.188,35.4,35.4,0,0,0-4.461-.8,36.138,36.138,0,0,0-4.092-.028,32.859,32.859,0,0,0-4.177.6c-.71.171-1.648.341-2.813.682-1.165.313-2.3.654-3.467,1.08-.369.142-2.046.824-2.387.966-.369.171-.995.4-1.478.6a27.881,27.881,0,0,1-2.7.8l-24.438-3.154a.532.532,0,0,0-.4.142.458.458,0,0,0-.171.369l.171,100.992a.474.474,0,0,0,.455.483l76.668,9.889a.476.476,0,0,0,.54-.369l25.774-97.639a.493.493,0,0,0-.085-.4" transform="translate(-4.367 -0.625)" fill="none"/>
    <path id="Path_369" data-name="Path 369" d="M387.921,327.123a.661.661,0,0,0-.341-.227l-36.941-4.774c-.71-.824-1.336-1.421-1.677-1.762-.512-.455-1.421-1.25-2.5-2.046a31.314,31.314,0,0,0-5.371-3.211,33.949,33.949,0,0,0-6.11-2.188,35.4,35.4,0,0,0-4.461-.8,36.138,36.138,0,0,0-4.092-.028,32.859,32.859,0,0,0-4.177.6c-.71.171-1.648.341-2.813.682-1.165.313-2.3.654-3.467,1.08-.369.142-2.046.824-2.387.966-.369.171-.995.4-1.478.6a27.881,27.881,0,0,1-2.7.8l-24.438-3.154a.532.532,0,0,0-.4.142.458.458,0,0,0-.171.369l.171,100.992a.474.474,0,0,0,.455.483l76.668,9.889a.476.476,0,0,0,.54-.369l25.774-97.639a.493.493,0,0,0-.085-.4" transform="translate(-4.367 -0.625)" fill="none"/>
    <path id="Path_370" data-name="Path 370" d="M387.921,327.123a.661.661,0,0,0-.341-.227l-36.941-4.774c-.71-.824-1.336-1.421-1.677-1.762-.512-.455-1.421-1.25-2.5-2.046a31.314,31.314,0,0,0-5.371-3.211,33.949,33.949,0,0,0-6.11-2.188,35.4,35.4,0,0,0-4.461-.8,36.138,36.138,0,0,0-4.092-.028,32.859,32.859,0,0,0-4.177.6c-.71.171-1.648.341-2.813.682-1.165.313-2.3.654-3.467,1.08-.369.142-2.046.824-2.387.966-.369.171-.995.4-1.478.6a27.881,27.881,0,0,1-2.7.8l-24.438-3.154a.532.532,0,0,0-.4.142.458.458,0,0,0-.171.369l.171,100.992a.474.474,0,0,0,.455.483l76.668,9.889a.476.476,0,0,0,.54-.369l25.774-97.639a.493.493,0,0,0-.085-.4" transform="translate(-4.367 -0.625)" fill="none"/>
    <path id="Path_371" data-name="Path 371" d="M387.921,327.123a.661.661,0,0,0-.341-.227l-36.941-4.774c-.71-.824-1.336-1.421-1.677-1.762-.512-.455-1.421-1.25-2.5-2.046a31.314,31.314,0,0,0-5.371-3.211,33.949,33.949,0,0,0-6.11-2.188,35.4,35.4,0,0,0-4.461-.8,36.138,36.138,0,0,0-4.092-.028,32.859,32.859,0,0,0-4.177.6c-.71.171-1.648.341-2.813.682-1.165.313-2.3.654-3.467,1.08-.369.142-2.046.824-2.387.966-.369.171-.995.4-1.478.6a27.881,27.881,0,0,1-2.7.8l-24.438-3.154a.532.532,0,0,0-.4.142.458.458,0,0,0-.171.369l.171,100.992a.474.474,0,0,0,.455.483l76.668,9.889a.476.476,0,0,0,.54-.369l25.774-97.639a.493.493,0,0,0-.085-.4" transform="translate(-4.367 -0.625)" fill="none"/>
    <path id="Path_372" data-name="Path 372" d="M387.921,327.123a.661.661,0,0,0-.341-.227l-36.941-4.774c-.71-.824-1.336-1.421-1.677-1.762-.512-.455-1.421-1.25-2.5-2.046a31.314,31.314,0,0,0-5.371-3.211,33.949,33.949,0,0,0-6.11-2.188,35.4,35.4,0,0,0-4.461-.8,36.138,36.138,0,0,0-4.092-.028,32.859,32.859,0,0,0-4.177.6c-.71.171-1.648.341-2.813.682-1.165.313-2.3.654-3.467,1.08-.369.142-2.046.824-2.387.966-.369.171-.995.4-1.478.6a27.881,27.881,0,0,1-2.7.8l-24.438-3.154a.532.532,0,0,0-.4.142.458.458,0,0,0-.171.369l.171,100.992a.474.474,0,0,0,.455.483l76.668,9.889a.476.476,0,0,0,.54-.369l25.774-97.639a.493.493,0,0,0-.085-.4" transform="translate(-4.367 -0.625)" fill="none"/>
    <path id="Path_373" data-name="Path 373" d="M387.921,327.123a.661.661,0,0,0-.341-.227l-36.941-4.774c-.71-.824-1.336-1.421-1.677-1.762-.512-.455-1.421-1.25-2.5-2.046a31.314,31.314,0,0,0-5.371-3.211,33.949,33.949,0,0,0-6.11-2.188,35.4,35.4,0,0,0-4.461-.8,36.138,36.138,0,0,0-4.092-.028,32.859,32.859,0,0,0-4.177.6c-.71.171-1.648.341-2.813.682-1.165.313-2.3.654-3.467,1.08-.369.142-2.046.824-2.387.966-.369.171-.995.4-1.478.6a27.881,27.881,0,0,1-2.7.8l-24.438-3.154a.532.532,0,0,0-.4.142.458.458,0,0,0-.171.369l.171,100.992a.474.474,0,0,0,.455.483l76.668,9.889a.476.476,0,0,0,.54-.369l25.774-97.639a.493.493,0,0,0-.085-.4" transform="translate(-4.367 -0.625)" fill="none"/>
    <path id="Path_374" data-name="Path 374" d="M387.921,327.123a.661.661,0,0,0-.341-.227l-36.941-4.774c-.71-.824-1.336-1.421-1.677-1.762-.512-.455-1.421-1.25-2.5-2.046a31.314,31.314,0,0,0-5.371-3.211,33.949,33.949,0,0,0-6.11-2.188,35.4,35.4,0,0,0-4.461-.8,36.138,36.138,0,0,0-4.092-.028,32.859,32.859,0,0,0-4.177.6c-.71.171-1.648.341-2.813.682-1.165.313-2.3.654-3.467,1.08-.369.142-2.046.824-2.387.966-.369.171-.995.4-1.478.6a27.881,27.881,0,0,1-2.7.8l-24.438-3.154a.532.532,0,0,0-.4.142.458.458,0,0,0-.171.369l.171,100.992a.474.474,0,0,0,.455.483l76.668,9.889a.476.476,0,0,0,.54-.369l25.774-97.639a.493.493,0,0,0-.085-.4" transform="translate(-4.367 -0.625)" fill="none"/>
    <path id="Path_375" data-name="Path 375" d="M387.921,327.123a.661.661,0,0,0-.341-.227l-36.941-4.774c-.71-.824-1.336-1.421-1.677-1.762-.512-.455-1.421-1.25-2.5-2.046a31.314,31.314,0,0,0-5.371-3.211,33.949,33.949,0,0,0-6.11-2.188,35.4,35.4,0,0,0-4.461-.8,36.138,36.138,0,0,0-4.092-.028,32.859,32.859,0,0,0-4.177.6c-.71.171-1.648.341-2.813.682-1.165.313-2.3.654-3.467,1.08-.369.142-2.046.824-2.387.966-.369.171-.995.4-1.478.6a27.881,27.881,0,0,1-2.7.8l-24.438-3.154a.532.532,0,0,0-.4.142.458.458,0,0,0-.171.369l.171,100.992a.474.474,0,0,0,.455.483l76.668,9.889a.476.476,0,0,0,.54-.369l25.774-97.639a.493.493,0,0,0-.085-.4" transform="translate(-4.367 -0.625)" fill="none"/>
    <path id="Path_376" data-name="Path 376" d="M387.921,327.123a.661.661,0,0,0-.341-.227l-36.941-4.774c-.71-.824-1.336-1.421-1.677-1.762-.512-.455-1.421-1.25-2.5-2.046a31.314,31.314,0,0,0-5.371-3.211,33.949,33.949,0,0,0-6.11-2.188,35.4,35.4,0,0,0-4.461-.8,36.138,36.138,0,0,0-4.092-.028,32.859,32.859,0,0,0-4.177.6c-.71.171-1.648.341-2.813.682-1.165.313-2.3.654-3.467,1.08-.369.142-2.046.824-2.387.966-.369.171-.995.4-1.478.6a27.881,27.881,0,0,1-2.7.8l-24.438-3.154a.532.532,0,0,0-.4.142.458.458,0,0,0-.171.369l.171,100.992a.474.474,0,0,0,.455.483l76.668,9.889a.476.476,0,0,0,.54-.369l25.774-97.639a.493.493,0,0,0-.085-.4" transform="translate(-4.367 -0.625)" fill="none"/>
    <path id="Path_377" data-name="Path 377" d="M387.921,327.123a.661.661,0,0,0-.341-.227l-36.941-4.774c-.71-.824-1.336-1.421-1.677-1.762-.512-.455-1.421-1.25-2.5-2.046a31.314,31.314,0,0,0-5.371-3.211,33.949,33.949,0,0,0-6.11-2.188,35.4,35.4,0,0,0-4.461-.8,36.138,36.138,0,0,0-4.092-.028,32.859,32.859,0,0,0-4.177.6c-.71.171-1.648.341-2.813.682-1.165.313-2.3.654-3.467,1.08-.369.142-2.046.824-2.387.966-.369.171-.995.4-1.478.6a27.881,27.881,0,0,1-2.7.8l-24.438-3.154a.532.532,0,0,0-.4.142.458.458,0,0,0-.171.369l.171,100.992a.474.474,0,0,0,.455.483l76.668,9.889a.476.476,0,0,0,.54-.369l25.774-97.639a.493.493,0,0,0-.085-.4" transform="translate(-4.367 -0.625)" fill="none"/>
    <path id="Path_378" data-name="Path 378" d="M387.921,327.123a.661.661,0,0,0-.341-.227l-36.941-4.774c-.71-.824-1.336-1.421-1.677-1.762-.512-.455-1.421-1.25-2.5-2.046a31.314,31.314,0,0,0-5.371-3.211,33.949,33.949,0,0,0-6.11-2.188,35.4,35.4,0,0,0-4.461-.8,36.138,36.138,0,0,0-4.092-.028,32.859,32.859,0,0,0-4.177.6c-.71.171-1.648.341-2.813.682-1.165.313-2.3.654-3.467,1.08-.369.142-2.046.824-2.387.966-.369.171-.995.4-1.478.6a27.881,27.881,0,0,1-2.7.8l-24.438-3.154a.532.532,0,0,0-.4.142.458.458,0,0,0-.171.369l.171,100.992a.474.474,0,0,0,.455.483l76.668,9.889a.476.476,0,0,0,.54-.369l25.774-97.639a.493.493,0,0,0-.085-.4" transform="translate(-4.367 -0.625)" fill="none"/>
    <path id="Path_379" data-name="Path 379" d="M387.921,327.123a.661.661,0,0,0-.341-.227l-36.941-4.774c-.71-.824-1.336-1.421-1.677-1.762-.512-.455-1.421-1.25-2.5-2.046a31.314,31.314,0,0,0-5.371-3.211,33.949,33.949,0,0,0-6.11-2.188,35.4,35.4,0,0,0-4.461-.8,36.138,36.138,0,0,0-4.092-.028,32.859,32.859,0,0,0-4.177.6c-.71.171-1.648.341-2.813.682-1.165.313-2.3.654-3.467,1.08-.369.142-2.046.824-2.387.966-.369.171-.995.4-1.478.6a27.881,27.881,0,0,1-2.7.8l-24.438-3.154a.532.532,0,0,0-.4.142.458.458,0,0,0-.171.369l.171,100.992a.474.474,0,0,0,.455.483l76.668,9.889a.476.476,0,0,0,.54-.369l25.774-97.639a.493.493,0,0,0-.085-.4" transform="translate(-4.367 -0.625)" fill="none"/>
    <path id="Path_380" data-name="Path 380" d="M387.921,327.123a.661.661,0,0,0-.341-.227l-36.941-4.774c-.71-.824-1.336-1.421-1.677-1.762-.512-.455-1.421-1.25-2.5-2.046a31.314,31.314,0,0,0-5.371-3.211,33.949,33.949,0,0,0-6.11-2.188,35.4,35.4,0,0,0-4.461-.8,36.138,36.138,0,0,0-4.092-.028,32.859,32.859,0,0,0-4.177.6c-.71.171-1.648.341-2.813.682-1.165.313-2.3.654-3.467,1.08-.369.142-2.046.824-2.387.966-.369.171-.995.4-1.478.6a27.881,27.881,0,0,1-2.7.8l-24.438-3.154a.532.532,0,0,0-.4.142.458.458,0,0,0-.171.369l.171,100.992a.474.474,0,0,0,.455.483l76.668,9.889a.476.476,0,0,0,.54-.369l25.774-97.639a.493.493,0,0,0-.085-.4" transform="translate(-4.367 -0.625)" fill="none"/>
    <path id="Path_381" data-name="Path 381" d="M387.921,327.123a.661.661,0,0,0-.341-.227l-36.941-4.774c-.71-.824-1.336-1.421-1.677-1.762-.512-.455-1.421-1.25-2.5-2.046a31.314,31.314,0,0,0-5.371-3.211,33.949,33.949,0,0,0-6.11-2.188,35.4,35.4,0,0,0-4.461-.8,36.138,36.138,0,0,0-4.092-.028,32.859,32.859,0,0,0-4.177.6c-.71.171-1.648.341-2.813.682-1.165.313-2.3.654-3.467,1.08-.369.142-2.046.824-2.387.966-.369.171-.995.4-1.478.6a27.881,27.881,0,0,1-2.7.8l-24.438-3.154a.532.532,0,0,0-.4.142.458.458,0,0,0-.171.369l.171,100.992a.474.474,0,0,0,.455.483l76.668,9.889a.476.476,0,0,0,.54-.369l25.774-97.639a.493.493,0,0,0-.085-.4" transform="translate(-4.367 -0.625)" fill="none"/>
    <path id="Path_382" data-name="Path 382" d="M382.495,322.311a38.3,38.3,0,0,1,7.672-1.62,18.518,18.518,0,0,1,4.092-.085,23.858,23.858,0,0,1,3.012.426,27.891,27.891,0,0,1,12.958,6.053c3.41,3.3,8.212,8.639,7.758,20.176a10.642,10.642,0,0,1-.341,2.472c-.085.341-.568.909-.824.142a66.427,66.427,0,0,0-3.723-9.008c-.256-.54-.625-.369-.568.142.028.227.227,3.382.2,3.836-.028.426-.369,1.449.966,3.609a6.52,6.52,0,0,1,1.165,2.87c.142,1.222.171,1.733.171,1.847,0,.142.085.483-.483.426-.568-.085-2.7-.512-3.609-.625a94.8,94.8,0,0,0-9.8-.142,8.44,8.44,0,0,0-5.172,1.733,3.5,3.5,0,0,1-.881.512,5.375,5.375,0,0,1-.995-.171,5.97,5.97,0,0,0-2.245.057,1.806,1.806,0,0,1-1.62,0c-.881-.511-2.3-2.472-6.536-2.842a46.232,46.232,0,0,0-9.349-.114.591.591,0,0,1-.682-.6,6.438,6.438,0,0,1,.057-1.478,1.571,1.571,0,0,1,.369-.767,7.847,7.847,0,0,1,.995-.682c.483-.284.512-1.25.625-1.762a20.546,20.546,0,0,1,4.6-10.685c1.932-2.16,3.865-2.1,5.882-2.16a12.817,12.817,0,0,1,5.172,1.023c.853.4,1.279.682,1.62.426.341-.227,1.25-1.023,1.62-1.307s.227-.71-.114-.966a17.622,17.622,0,0,0-8.582-4.234,25.866,25.866,0,0,0-10.088.654,1.6,1.6,0,0,1-.455.057c-.114-.028-.54-.227-.341-.512a5.315,5.315,0,0,1,1.222-1.108,21.163,21.163,0,0,1,5.513-2.9,6.357,6.357,0,0,1,.852-.256.474.474,0,0,0-.085-.938,7.583,7.583,0,0,0-1.535-.057c-.426.028-.625-.2-.313-.512a7.078,7.078,0,0,1,1.819-.938" transform="translate(-68.248 -6.697)" fill="#fff"/>
    <g id="Group_38" data-name="Group 38" transform="translate(280.005 313.028)">
      <g id="Group_37" data-name="Group 37" transform="translate(0 0)" clip-path="url(#clip-path)">
        <path id="Path_383" data-name="Path 383" d="M353.313,446.832c.284-.085.654-.227.852-.313.2-.057.654-.114.654.54a10.21,10.21,0,0,0,.426,3.5,2.879,2.879,0,0,1,.114.625.434.434,0,0,1-.71.369,10.4,10.4,0,0,1-1.62-3.95c-.057-.171-.057-.654.284-.767" transform="translate(-333.478 -409.89)" fill="#fff"/>
        <g id="Group_31" data-name="Group 31" transform="translate(-80.788 -90.279)">
          <path id="Path_384" data-name="Path 384" d="M0,0V2608.637H3375.883V0" fill="none"/>
        </g>
        <g id="Group_32" data-name="Group 32" transform="translate(-80.788 -90.279)">
          <path id="Path_385" data-name="Path 385" d="M0,0V2608.637H3375.883V0" fill="none"/>
        </g>
        <g id="Group_33" data-name="Group 33" transform="translate(-80.788 -90.279)">
          <path id="Path_386" data-name="Path 386" d="M0,0V2608.637H3375.883V0" fill="none"/>
        </g>
        <g id="Group_34" data-name="Group 34" transform="translate(-80.788 -90.279)">
          <path id="Path_387" data-name="Path 387" d="M0,0V2608.637H3375.883V0" fill="none"/>
        </g>
        <g id="Group_35" data-name="Group 35" transform="translate(-80.788 -90.279)">
          <path id="Path_388" data-name="Path 388" d="M0,0V2608.637H3375.883V0" fill="none"/>
        </g>
        <g id="Group_36" data-name="Group 36" transform="translate(-80.788 -90.279)">
          <path id="Path_389" data-name="Path 389" d="M0,0V2608.637H3375.883V0" fill="none"/>
        </g>
        <path id="Path_390" data-name="Path 390" d="M366.62,573.587l9.434,35.947,1.733,5.854,3.154,18.5-86.642-11,13.924-44.955,53.991-6.735Z" transform="translate(-291.458 -499.164)" fill="#b12735"/>
        <path id="Path_391" data-name="Path 391" d="M344.424,594.784c-.085-.17-7.3-11.281-8.383-12.787-1.819-2.415-2.3-3.609-4.717-6.252a27.655,27.655,0,0,0-3.268-2.955c-1.563-1.108.909-1.364-.6-1.932a92,92,0,0,0-11.168-3.24c-5.484-1.25-9.946-2.3-10.571-2.444-.568-.114-.71-.682-1.193-1.023a79.457,79.457,0,0,0-7.3-3.609c-.057-.029-.114-.114-.171-.142h-43.7c-.483,1.108-1.08,2.529-1.62,4.007a2.207,2.207,0,0,1-1.193,1.449c-.71.227-2.33.853-2.9,1.08a3.773,3.773,0,0,0-1.62,1.051c-.341.313-.568.483-.767.682-.114.114-.171.17-.739.4a95.7,95.7,0,0,0-15.544,5.143c-.995.455-1.677.625-2.87,1.08-.995.369-1.9.682-2.984,1.023-1.677.455-6.166,1.932-7.587,2.444a16.866,16.866,0,0,0-4.234,2.33,10.435,10.435,0,0,0-2.359,2.5,6.794,6.794,0,0,0-1.535,3.268c.4.341,2.813-2.87,4.149-3.978a20.826,20.826,0,0,1,5.769-2.813c1.023-.313,2.785-.682,3.921-1.023,0,0,2.813-.682,3.325-.852l4.12-1.25s6.507-2.273,7.331-2.557a4.147,4.147,0,0,1,2.3,0c.568.227,1.932.71,2.387.938.455.2.568,1.108.2,1.875-.341.739-4.859,11.2-6.053,14.748-1.819,5.427-7.133,10.827-7.133,10.827s-2.3,9.52-2.842,11.992l6.536.824c.426-3.012,8.127-19.607,8.127-19.607s1.392-5.285,2.131-7.957c.739-2.643,4.234-12.39,5.172-14.606.654-1.591.995-2.33,1.62-2.5.2-.057.4-.142.54-.17.114-.028.369-.057.256.369-.17.511-.881,2.586-2.472,9.406a76.3,76.3,0,0,0-1.847,11.537c-.085,1.108-.256,2.643,1.506,2.188,2.046-.511,8.98-1.989,12.674-2.614a208.375,208.375,0,0,1,27.422-2.074s-.114,9.974-.085,11.509l-.085,4.746c0,1.762.142,3.609.142,5.285,0,1.762,0,2.3.028,4.12,0,3.183-.057,5.513.028,6.593l3.779.455c-.057-1.9-.114-7.133-.313-12.588-.057-1.62-.057-3.126-.114-4.8-.057-.767.085-.881.057-1.62l-.085-1.847c-.057-1.762-.426-11.878-.426-11.878h1.222c.938,0,1.819,0,2.643.028.171,2.074.313,5.484.71,10.372l.142,4.12c0,.284.028,2.756.028,3.836,0,.909.085,3.1.085,3.95-.028,4.433-.171,9.406-.057,10.94l3.58.455c.057-.938.085-4.433,0-7.815,0-.6,0-1.364.028-2.074-.057-1.307-.057-2.9-.142-4.916l-.227-6.053c-.171-2.955-1.08-12.787-1.08-12.787,1.449.028,2.643.028,3.694.028,0,0,.853,10.542,1.108,13.157l.114,2.586c.17,2.273.455,4.689.511,6.877.028,1.108.085,2.216.142,3.24.142,3.041.256,6.28.284,8.3l3.467.426c.057-2.614-.057-7.53-.341-11.963-.085-1.421-.171-2.472-.284-3.921-.057-.71-.085-2.131-.2-3.723l-.17-1.506c-.654-4.888-1.506-13.5-1.506-13.5.938,0,2.1.028,2.444.057.71.057,1.108-.313.568-.54a7.987,7.987,0,0,0-1.762-.455c-.17-.028-.511-.057-.682-.085-.71-.114-.909-.284-.909-1.364a139.142,139.142,0,0,0-1.421-15.174c-.682-4.035-.824-5.2-.995-6.11-.142-.767.341-.739.568-.71a2.955,2.955,0,0,1,2.245,1.563c.54,1.762,3.95,16.141,5.342,21.511,1.307,4.916,2.842,11.253,4.234,15.657l.625,2.444c.284,1.392.625,2.472.767,3.268.284,1.648.682,3.808.938,5.257.8,4.66,1.279,9.719,1.279,9.719a3.663,3.663,0,0,0,.142,1.023l3.751.369a87.856,87.856,0,0,0-1.108-10c-.057-.4-.2-1.364-.256-1.819-.2-1.165-.4-1.9-.682-3.325-.284-1.478-.568-3.1-.739-3.609-.824-2.756-1.364-4.945-2.046-6.877-.625-1.819-6.507-21.824-9.321-30.889a5.634,5.634,0,0,1-.227-.938c-.114-.654.6-.625.909-.568,1.108.256,11.225,2.3,13.981,2.927a53.546,53.546,0,0,1,6.11,1.79c.881.341-1.478.739-.057,1.677,5.229,3.5,14.862,19.21,16.567,21C344.567,596.517,344.879,595.608,344.424,594.784Z" transform="translate(-229.252 -491.433)" fill="#1f1c14"/>
        <path id="Path_392" data-name="Path 392" d="M374.439,594.1c-1.847.057-9.747.341-13.242.568-2.131.142-1.79-.881-2.074-2.842a60.346,60.346,0,0,1,1.051-12.3c.341-1.449.455-1.875.739-1.989a5.91,5.91,0,0,1,.852-.369c.142,0,.512-.057.625.256.142.313,2.33,6.877,4.007,9.377a24.9,24.9,0,0,0,3.893,5c.767.654.881-.284.511-.824A31.083,31.083,0,0,1,364.891,576a13.06,13.06,0,0,1,.54-5.541c.483-.966.767-.824,1.051-.426a28.553,28.553,0,0,0,7.246,6.11,19.023,19.023,0,0,1,1.62,1.023c.114.17.284.511-.142.54a13.054,13.054,0,0,0-3.1.256c-1.392.341-1.193.853-1.222,1.648-.028.739.028,1.25,0,2.216-.028.995-.227,1.847.2,2.3.426.483,1.023.8,2.756.682,1.648-.114,2.216-.17,2.415-.142s.654,0,.313.512a25.294,25.294,0,0,0-2.131,3.126,13.059,13.059,0,0,0-.654,1.534c-.057.2.028.568.426.2a28.461,28.461,0,0,1,3.183-3.5,9.66,9.66,0,0,1,3.3-2.216c.512-.17.6.142.341.881a33.318,33.318,0,0,1-3.041,5.939c-.909,1.534-1.677,2.842-2.557,2.9-.4.029-.8.057-.995.057" transform="translate(-337.839 -498.112)" fill="#fff"/>
        <path id="Path_393" data-name="Path 393" d="M474.134,586.2h-.6c-3.183-.142-11.253-.426-17.618-.455h-.341c-.455,0-.71-.114-.682-.54a22.325,22.325,0,0,0-2.131-9.036c-.2-.369.2-.568.483-.4a32.664,32.664,0,0,1,6.479,4.973,14.224,14.224,0,0,1,1.222,1.222c.2.2.739.341.625-.171-.142-.654-1.165-2.074-3.865-5.314-.369-.455-.369-.625.085-.625.455.028,1.677.227,2.359.284.654.057,2.131.2,2.1-1.733-.028-1.506,0-3.069.057-3.524a1.359,1.359,0,0,0-.995-1.62,11.767,11.767,0,0,0-4.547.085c-.455.085-.6-.142-.227-.369a34.865,34.865,0,0,0,6.195-4.12,21.169,21.169,0,0,0,5.428-6.706c.171-.341.284-.2.426-.114a4.447,4.447,0,0,1,1.108,3.041c.085,2.018.4,4.831-1.762,11.85a45.644,45.644,0,0,1-2.557,6.593c-.256.512.028.881.455.426.995-1.051,2.557-4.092,4.007-7.644a51.91,51.91,0,0,0,2.785-9.6c.142-.682.483-.455.654-.369s.966.455,1.137,2.5.739,6.422.938,19.664c0,1.648-.2,1.62-1.222,1.705" transform="translate(-404.855 -489.67)" fill="#fff"/>
        <path id="Path_394" data-name="Path 394" d="M437.339,643.716c.057.313.2,1.875.2,2.472,0,.085,0,.568-.455.625-.284.028-1.449.028-1.62.028-.171-.028-.313-.2-.227-.341a8.625,8.625,0,0,0,1.7-2.785c.142-.256.341-.455.4,0" transform="translate(-392.327 -550.879)" fill="#fff"/>
        <path id="Path_395" data-name="Path 395" d="M347.611,383.592a13.58,13.58,0,0,1-.483-3.751,53.143,53.143,0,0,1,.512-6.024,5.107,5.107,0,0,0-.426-3.637,15.81,15.81,0,0,1-.938-1.847c-.142-.369.028-.6.426-.8.2-.114.54.028.852,0a11.711,11.711,0,0,0,4.035-1.364,51.735,51.735,0,0,1,5.6-3.325,9.045,9.045,0,0,1,4.092-.853c.313,0,.767.227.171.568a11.343,11.343,0,0,0-4.689,3.382,18.178,18.178,0,0,0-2.273,3.438,5.376,5.376,0,0,1-1.591,1.506,4.091,4.091,0,0,0-1.364,1.762,27.894,27.894,0,0,0-1.819,9.321c-.028.6.114,1.421-.483,1.648-.369.114-.682.227-.966.313-.256.085-.512.085-.654-.341" transform="translate(-328.629 -349.407)" fill="#fff"/>
        <path id="Path_396" data-name="Path 396" d="M376.482,440.824a7.344,7.344,0,0,1,.966-.142,10.164,10.164,0,0,1,1.165-.085c.654-.028.71.483.284.739-.284.17-.739.4-1.137.625-.625.369-1.222.824-1.677,1.108-.568.341-1.364,0-1.108-.739a2.082,2.082,0,0,1,1.506-1.506" transform="translate(-349.174 -405.673)" fill="#fff"/>
        <path id="Path_397" data-name="Path 397" d="M388.259,443.265a8.163,8.163,0,0,1,2.955-1.165,2.561,2.561,0,0,1,1.677.654c.455.483.568,1.023,0,.938a5.087,5.087,0,0,0-2.3,0,13.126,13.126,0,0,0-2.671.995,3.817,3.817,0,0,1-1.421.341c-.2,0-.909-.2-.341-.654.171-.114.483-.2,1.023-.455.341-.227.625-.369,1.08-.654" transform="translate(-357.057 -406.75)" fill="#fff"/>
        <path id="Path_398" data-name="Path 398" d="M379.794,457.582a4.187,4.187,0,0,1,3.865-1.79c.966.114,1.847.313,2.188.341a4.933,4.933,0,0,0,2.217-.313c.71-.369.966,0,.511.455s-.767.682-.4,1.194a4.825,4.825,0,0,0,.6.739.426.426,0,0,0,.6,0,3.133,3.133,0,0,0,.71-.54c.2-.171.284.057.2.369a5.66,5.66,0,0,1-2.16,3.552,6.532,6.532,0,0,0-1.932,1.677,4.253,4.253,0,0,0-.71,1.677c-.085.369-.4.483-.739.568a9.634,9.634,0,0,0-2.643,1.506,2.114,2.114,0,0,1-3.126-.2,10.323,10.323,0,0,1-2.472-4.234c-.142-.54.2-.6.426-.426a5.941,5.941,0,0,0,1.449.824.578.578,0,0,0,.8-.313c.142-.284.511-.824-.057-1.165a6.363,6.363,0,0,1-3.126-3.58.572.572,0,0,1,.227-.71c.142-.085.625-.284.852-.4a.657.657,0,0,1,.767.2,2.36,2.36,0,0,0,1.336.8.59.59,0,0,0,.625-.227" transform="translate(-349.9 -416.463)" fill="#fff"/>
        <path id="Path_399" data-name="Path 399" d="M421.027,481.383c.142-.256-.8-.824-1.421-.057a2.31,2.31,0,0,0-.057,2.614c.654.966,1.449.682,1.478.455a1.473,1.473,0,0,0-.142-.881,2.578,2.578,0,0,1,.142-2.131" transform="translate(-380.846 -434.552)" fill="#fff"/>
        <path id="Path_400" data-name="Path 400" d="M435.47,486.343a6.569,6.569,0,0,0-1.875,3.779c-.028.114-.028.227-.142.256-.8.171-1.534-.8-2.131-1.336a18.667,18.667,0,0,1-3.637-4.007c-1.478-2.387-1.108-3.865-.227-6.593a7.794,7.794,0,0,0,.114-4.177c-.114-.284.085-.54.483-.284a5.148,5.148,0,0,1,1.08,1.506c.369.568.511.227.6-.142a5.035,5.035,0,0,0,.028-1.961c-.028-.227-.17-.767-.6-.909a5.056,5.056,0,0,1-1.449-.6c-.142-.114-.284-.369-.085-.511a3.946,3.946,0,0,1,1.279-.682,5.826,5.826,0,0,1,1.9-.256c4.859.682,6.337-.284,8.3-.8a1.121,1.121,0,0,1,.909,0c.313.142,1.108.568,1.279.966s0,2.018.256,3.211,1.108.114,1.336-.369a13.653,13.653,0,0,0,.483-1.932,4.466,4.466,0,0,1,.739-1.9,4.658,4.658,0,0,0,1.364-2.074,10.462,10.462,0,0,0,.341-3.239c-.028-1.677-.341-1.875-.767-2.216-.4-.369-.909-.284-1.932-1.25a20.426,20.426,0,0,1-2.359-3.041,5.991,5.991,0,0,0-3.069-2.074c-1.279-.313-.682.938-.6,1.279.057.227.171.938-.256,1.25-.426.341-2.842,1.989-4.859,1.677a5.23,5.23,0,0,1-4.518-3.694c-.17-.909.824-2.927,1.023-4.4.085-.682.114-1.932.114-2.813a4.53,4.53,0,0,1,.881-2.245,2.87,2.87,0,0,1,1.62-.483,1.6,1.6,0,0,1,1.677,1.023c.483,2.16,1.25,2.7,1.506,2.9.256.171.767-.17.966-.284.2-.142.682-.625.54-.909a3.514,3.514,0,0,1-.426-.909c-.085-.4.426-.341.54-.284a7.454,7.454,0,0,0,3.666,1.25,23.749,23.749,0,0,0,4.234-.483,1.187,1.187,0,0,1,.8.483,2.579,2.579,0,0,0,.54.853,9.586,9.586,0,0,0,1.023.171c.369.057,1.051.028.938.71a4.474,4.474,0,0,1-2.046,2.9.4.4,0,0,0-.2.4,5.544,5.544,0,0,0,.171.654.421.421,0,0,0,.6.227,5.788,5.788,0,0,0,2.643-2.415c.682-1.023,1.449-4.6,1.563-5.172a1.519,1.519,0,0,1,.682-1.137,14.94,14.94,0,0,1,2.1-.966c.2-.028.455,0,.6.568.17.568.227,3.978.256,4.49.028.568.341.54.483.426a2.836,2.836,0,0,0,.938-.853,1.336,1.336,0,0,0,0-1.449c-.227-.341-.6-.881-.341-1.336a1.392,1.392,0,0,1,1.677-.8c.227.085,1.051.6.909,3.012a20.785,20.785,0,0,1-2.643,7.957,18.644,18.644,0,0,0-1.591,4.007c-.2.654-.682.455-.824.341a4.049,4.049,0,0,1-.256-.767c-.057-.085-.284-.057-.483.483a7.628,7.628,0,0,1-1.051,1.677,1.628,1.628,0,0,0-.227.966,33.17,33.17,0,0,1-.455,5.57,15.92,15.92,0,0,1-4.12,8.752,22.3,22.3,0,0,1-6.337,4.6,1.858,1.858,0,0,1-1.307,0c-.227-.085-.369-.369-.767-.71-.369-.369-.511.171-.54.313-.028.114.142.654.2,1.137a4.641,4.641,0,0,1-1.25,2.671" transform="translate(-386.224 -409.022)" fill="#fff"/>
        <path id="Path_401" data-name="Path 401" d="M411.366,501.212c2.813-.6,7.019-1.023,16.112-.057,1.819.2,1.961-.057,2.188-.171s.54-.455.54-.568a.664.664,0,0,0-.483-.568,3.526,3.526,0,0,1-2.216-1.563,10.628,10.628,0,0,0-2.16-2.785c-.512-.4-.881-.284-1.023-.171a8.29,8.29,0,0,1-2.3,1.364,2.179,2.179,0,0,0-1.25.625,2.26,2.26,0,0,1-1.961,1.193,8.243,8.243,0,0,1-4.007-1.023,2.986,2.986,0,0,0-2.529-.171c-.568.369-1.421,1.478-1.847,1.79a7.383,7.383,0,0,1-1.762.938c-.256.085-.512.256-.369.54.2.227.71,1.08,3.069.625" transform="translate(-373.033 -444.777)" fill="#fff"/>
        <path id="Path_402" data-name="Path 402" d="M430.744,524.254a3.128,3.128,0,0,0,1.847.824c.426.028,3.041-.142,3.865-.2a17.188,17.188,0,0,0,3.069-.625c.568-.2.114-.426-.028-.426-.114,0-.4-.028-.938-.085a32.575,32.575,0,0,0-7.587.057c-.455-.028-.341.341-.227.455" transform="translate(-389.057 -465.063)" fill="#fff"/>
        <path id="Path_403" data-name="Path 403" d="M472.283,443.817a3.24,3.24,0,0,1,1.79.938,12.123,12.123,0,0,0,1.875,1.591c.256.142.853.313.256.625a2.12,2.12,0,0,1-1.222-.256,8.269,8.269,0,0,1-1.591-1.08,2.681,2.681,0,0,0-2.1-.512c-.512.085-.938.17-1.392.256-.455.114-.511-.313-.369-.455a4.2,4.2,0,0,1,1.932-1.108,2.667,2.667,0,0,1,.824,0" transform="translate(-416.842 -407.956)" fill="#fff"/>
        <path id="Path_404" data-name="Path 404" d="M487.173,441.426a7.771,7.771,0,0,1,1.25.966,6.408,6.408,0,0,0,1.449.966c.284.028.483.2.71-.341a1.28,1.28,0,0,0-.455-1.421,4.1,4.1,0,0,0-2.7-.6c-.369,0-.512.313-.256.426" transform="translate(-429.431 -405.962)" fill="#fff"/>
        <path id="Path_405" data-name="Path 405" d="M392.672,523.762c-1.847.057-6.451-1.989-8.525-10.088-.54-2.074.6-3.95,1.421-4.234a5.3,5.3,0,0,1,.909-.256.826.826,0,0,1,.966.909c-.028.739.6,7.019,2.245,9.292.426.568.8.6.995.085.171-.455.455-1.051.568-1.279.057-.17.6-.625.8.085a37.839,37.839,0,0,0,1.165,4.177c.369.8.171,1.279-.54,1.307" transform="translate(-355.673 -454.766)" fill="#fff"/>
        <path id="Path_406" data-name="Path 406" d="M363.4,439.285c.341-.028,1.648-.085,1.762-.085.114.028.227.085.256.341s.057.54.057.654,0,.313-.256.313c-.085,0-.938,0-1.392.028-.284,0-.568.085-.568-.2a5.243,5.243,0,0,0-.057-.824.2.2,0,0,1,.2-.227" transform="translate(-340.779 -404.674)" fill="#fff"/>
        <path id="Path_407" data-name="Path 407" d="M503.513,440.4c.114,0,1.336.057,1.762.057a.25.25,0,0,1,.227.313c-.028.142-.057.483-.085.625,0,.142-.2.256-.369.256s-1.307-.057-1.506-.057c-.171-.028-.341-.142-.341-.313s.028-.568.028-.654a.26.26,0,0,1,.284-.227" transform="translate(-440.996 -405.533)" fill="#fff"/>
        <path id="Path_408" data-name="Path 408" d="M412.915,367.941c-.171-.057-.313.114-.284.455.028.227.227,3.382.2,3.836-.028.426-.369,1.449.966,3.609a6.519,6.519,0,0,1,1.165,2.87c.142,1.222.17,1.733.17,1.847,0,.142.085.483-.483.426-.568-.085-2.7-.512-3.609-.625a94.794,94.794,0,0,0-9.8-.142,8.44,8.44,0,0,0-5.172,1.733,3.5,3.5,0,0,1-.881.512,5.367,5.367,0,0,1-.995-.171,5.971,5.971,0,0,0-2.245.057,1.806,1.806,0,0,1-1.62,0c-.881-.511-2.3-2.472-6.536-2.842a46.23,46.23,0,0,0-9.349-.114.591.591,0,0,1-.682-.6,6.44,6.44,0,0,1,.057-1.478,1.571,1.571,0,0,1,.369-.767,7.847,7.847,0,0,1,.995-.682c.483-.284.512-1.25.625-1.762a20.547,20.547,0,0,1,4.6-10.685c1.932-2.16,3.865-2.1,5.882-2.16a12.818,12.818,0,0,1,5.172,1.023c.853.4,1.279.682,1.62.426.341-.227,1.25-1.023,1.62-1.307a.446.446,0,0,0,.171-.625h0c.966-.654,3.268-2.387,5.058-2.074s6.877,1.648,9.548,4.064a10.992,10.992,0,0,1,3.438,5.172h0" transform="translate(-348.324 -347.027)" fill="#fef1df"/>
        <path id="Path_409" data-name="Path 409" d="M387.5,462.3c-.028.028-.313.17-.426.256a7.674,7.674,0,0,1-1.25.341,15.432,15.432,0,0,1-1.648.227.771.771,0,0,1-.853-.426,1.557,1.557,0,0,1-.114-.341.209.209,0,0,1,.114-.227.8.8,0,0,1,.142-.284,4.776,4.776,0,0,0,.71-.227,3.568,3.568,0,0,0,1.364-1.08,3.069,3.069,0,0,0,.654-1.392c0-.284-.085-.455-.114-.824a.683.683,0,0,1,.512-.654,6.1,6.1,0,0,0,.938-.256,4.627,4.627,0,0,0,.852-.483,3,3,0,0,1,.426-.426c.455-.455.2-.8-.511-.455a5.324,5.324,0,0,1-2.216.313c-.313-.028-1.222-.227-2.188-.341a4.129,4.129,0,0,0-3.865,1.79c-.085.114-.171.284-.625.284a2.718,2.718,0,0,1-1.336-.8.657.657,0,0,0-.767-.2c-.227.114-.71.313-.853.4a.607.607,0,0,0-.227.71,6.168,6.168,0,0,0,3.126,3.58c.568.313.2.881.057,1.165a.587.587,0,0,1-.8.313,5.944,5.944,0,0,1-1.449-.824c-.2-.142-.54-.114-.426.426a10.321,10.321,0,0,0,2.472,4.234,2.114,2.114,0,0,0,3.126.2,10.492,10.492,0,0,1,2.643-1.506c.341-.114.654-.2.739-.568a4.253,4.253,0,0,1,.71-1.677,2.8,2.8,0,0,1,1.08-1.25" transform="translate(-350.072 -416.637)" fill="#fef1df"/>
        <path id="Path_410" data-name="Path 410" d="M458.647,449.164c.17-2.415-.682-2.927-.909-3.012a1.435,1.435,0,0,0-1.677.8c-.256.455.114.995.341,1.336a1.336,1.336,0,0,1,0,1.449,2.836,2.836,0,0,1-.938.853c-.171.085-.455.114-.483-.426s-.114-3.921-.256-4.49-.4-.568-.6-.568a12.289,12.289,0,0,0-2.1.966,1.519,1.519,0,0,0-.682,1.137c-.114.6-.881,4.149-1.563,5.172a5.787,5.787,0,0,1-2.643,2.415c-.028,0-.057.028-.085.028-.625.2-1.449.369-1.7.171-.313-.256-.682-.6-.568-.8h0a.241.241,0,0,1,0-.2,2.394,2.394,0,0,1,.6-.739,4.477,4.477,0,0,0,.625-.881,2.877,2.877,0,0,0,.284-.966,1.629,1.629,0,0,0-.256-.995.421.421,0,0,1,0-.54.877.877,0,0,1,.284-.142,1.532,1.532,0,0,1,.313-.028h0c-.227-.114-.426-.6-.54-.824a1.328,1.328,0,0,0-.8-.483,23.048,23.048,0,0,1-4.234.483,7.36,7.36,0,0,1-3.666-1.25c-.114-.057-.625-.142-.54.284a4,4,0,0,0,.426.909c.171.284-.341.767-.54.909-.2.114-.682.483-.966.284-.256-.171-1.051-.71-1.506-2.9a1.571,1.571,0,0,0-1.677-1.023,2.869,2.869,0,0,0-1.62.483,4.151,4.151,0,0,0-.881,2.245c0,.881-.057,2.16-.114,2.813-.171,1.506-1.193,3.5-1.023,4.4a5.306,5.306,0,0,0,4.518,3.694c2.018.313,4.433-1.336,4.859-1.677a1.274,1.274,0,0,0,.256-1.25c-.085-.341-.682-1.591.6-1.279a5.991,5.991,0,0,1,3.069,2.074,25.075,25.075,0,0,0,2.359,3.041,13.357,13.357,0,0,0,1.932,1.25c.4.369.71.54.767,2.216a9.6,9.6,0,0,1-.341,3.24,4.551,4.551,0,0,1-1.364,2.074,3.74,3.74,0,0,0-.739,1.9,10.616,10.616,0,0,1-.483,1.932c-.227.483-1.08,1.563-1.336.369s-.085-2.785-.256-3.211c-.171-.4-.966-.824-1.279-.966a1.253,1.253,0,0,0-.909,0c-1.961.512-3.438,1.478-8.3.8a4.558,4.558,0,0,0-1.9.256,3.47,3.47,0,0,0-1.279.682c-.2.142-.057.369.085.511a4.361,4.361,0,0,0,1.449.6c.426.142.568.682.6.909v.057a5.788,5.788,0,0,1,.625.028,8.747,8.747,0,0,0,1.591.028,4.092,4.092,0,0,0,.739-.142.79.79,0,0,1,.4.256,1.276,1.276,0,0,1,.114.881c-.028.54.171.767.4.824.256.057.369-.028.6-.313a2.144,2.144,0,0,0,.426-.966c.028-.114,0-.227.028-.313.028-.057.028-.114.455-.426a.394.394,0,0,1,.4-.085c.057.028.057.114.057.171a2.369,2.369,0,0,0-.114.341,10.437,10.437,0,0,0-.2,2.245c.028.682.114,1.051.114,1.137s.341.682.426.966a16.506,16.506,0,0,1,.853,2.671,6.777,6.777,0,0,1,.171,1.364.392.392,0,0,0,.114.085c.369.369.54.625.767.71a1.714,1.714,0,0,0,1.307,0,22.3,22.3,0,0,0,6.337-4.6,16.031,16.031,0,0,0,4.12-8.752,33.361,33.361,0,0,0,.455-5.57,1.628,1.628,0,0,1,.227-.966,7.629,7.629,0,0,0,1.051-1.677c.2-.54.4-.568.483-.483a6.035,6.035,0,0,0,.256.767c.114.114.6.313.824-.341a18.647,18.647,0,0,1,1.591-4.007,17.787,17.787,0,0,0,2.785-7.928" transform="translate(-387.833 -408.897)" fill="#fef1df"/>
        <path id="Path_411" data-name="Path 411" d="M376.482,440.824a7.344,7.344,0,0,1,.966-.142,10.164,10.164,0,0,1,1.165-.085c.654-.028.71.483.284.739-.284.17-.739.4-1.137.625-.625.369-1.222.824-1.677,1.108-.568.341-1.364,0-1.108-.739a2.082,2.082,0,0,1,1.506-1.506" transform="translate(-349.174 -405.673)" fill="#eccda0"/>
        <path id="Path_412" data-name="Path 412" d="M388.259,443.265a8.163,8.163,0,0,1,2.955-1.165,2.561,2.561,0,0,1,1.677.654c.455.483.568,1.023,0,.938a5.087,5.087,0,0,0-2.3,0,13.126,13.126,0,0,0-2.671.995,3.817,3.817,0,0,1-1.421.341c-.2,0-.909-.2-.341-.654.171-.114.483-.2,1.023-.455.341-.227.625-.369,1.08-.654" transform="translate(-357.057 -406.75)" fill="#eccda0"/>
        <path id="Path_413" data-name="Path 413" d="M421.027,481.383c.142-.256-.8-.824-1.421-.057a2.31,2.31,0,0,0-.057,2.614c.654.966,1.449.682,1.478.455a1.473,1.473,0,0,0-.142-.881,2.578,2.578,0,0,1,.142-2.131" transform="translate(-380.846 -434.552)" fill="#eccda0"/>
        <path id="Path_414" data-name="Path 414" d="M472.283,443.817a3.24,3.24,0,0,1,1.79.938,12.123,12.123,0,0,0,1.875,1.591c.256.142.853.313.256.625a2.12,2.12,0,0,1-1.222-.256,8.269,8.269,0,0,1-1.591-1.08,2.681,2.681,0,0,0-2.1-.512c-.512.085-.938.17-1.392.256-.455.114-.511-.313-.369-.455a4.2,4.2,0,0,1,1.932-1.108,2.667,2.667,0,0,1,.824,0" transform="translate(-416.842 -407.956)" fill="#eccda0"/>
        <path id="Path_415" data-name="Path 415" d="M487.173,441.426a7.771,7.771,0,0,1,1.25.966,6.408,6.408,0,0,0,1.449.966c.284.028.483.2.71-.341a1.28,1.28,0,0,0-.455-1.421,4.1,4.1,0,0,0-2.7-.6c-.369,0-.512.313-.256.426" transform="translate(-429.431 -405.962)" fill="#eccda0"/>
        <path id="Path_416" data-name="Path 416" d="M392.672,523.762c-1.847.057-6.451-1.989-8.525-10.088-.54-2.074.6-3.95,1.421-4.234a5.3,5.3,0,0,1,.909-.256.826.826,0,0,1,.966.909c-.028.739.6,7.019,2.245,9.292.426.568.8.6.995.085.171-.455.455-1.051.568-1.279.057-.17.6-.625.8.085a37.839,37.839,0,0,0,1.165,4.177c.369.8.171,1.279-.54,1.307" transform="translate(-355.673 -454.766)" fill="#eccda0"/>
        <path id="Path_417" data-name="Path 417" d="M524.656,586.148c-.256-6.451-.6-9.179-.71-10.685-.17-2.046-.966-2.415-1.137-2.5a1.233,1.233,0,0,0-.2-.114c-.085-.029-.2-.057-.341.142a.793.793,0,0,0-.114.341c-.057.284-.114.654-.2,1.023.256,2.188.455,4.348.568,6.28a3.089,3.089,0,0,0-.029.483c.057.852.029,3.581-.17,9.718-.114,2.018-.284,4.149-.426,5.939.455,0,.852.028,1.193.057h.6c.682-.057.995-.057,1.137-.6a5.72,5.72,0,0,0,.057-1.108c-.085-3.581-.142-6.536-.227-8.98" transform="translate(-454.382 -500.33)" fill="#eccda0"/>
        <path id="Path_418" data-name="Path 418" d="M378.533,381.825c.881-3.694,2.046-7.985,3.751-10.713a23.832,23.832,0,0,1,1.733-2.359.424.424,0,0,0,.085-.2V368.1a5.921,5.921,0,0,0-3.865,2.046c-3.779,4.234-4.291,9.122-4.6,10.685-.085.511-.142,1.478-.625,1.762a7.853,7.853,0,0,0-.995.682,1.466,1.466,0,0,0-.369.767,8.571,8.571,0,0,0-.057,1.478.566.566,0,0,0,.682.6c1.563-.085,2.7-.171,3.666-.171a24.4,24.4,0,0,0,.6-4.12" transform="translate(-348.213 -353.778)" fill="#eccda0"/>
        <path id="Path_419" data-name="Path 419" d="M471.989,487.091a2.4,2.4,0,0,0-.085-1.961,4.784,4.784,0,0,0-1.421-1.733c-.654-.568-2.074-2.217-2.216-2.359s-.8-.966-.966-1.137a6.978,6.978,0,0,0-1.194-.995,4.221,4.221,0,0,0-3.41-.682c-.057.028-.369.227-.654.426-.284.227-.17.71-.085.909l.028.028c.028-.284.2-.511.8-.369a5.991,5.991,0,0,1,3.069,2.074,25.074,25.074,0,0,0,2.359,3.041,13.357,13.357,0,0,0,1.932,1.25c.4.369.71.54.767,2.216v.54h0a2.286,2.286,0,0,0,1.08-1.25" transform="translate(-411.405 -432.532)" fill="#eccda0"/>
        <path id="Path_420" data-name="Path 420" d="M408.165,462.922c.085-.313-.028-.54-.2-.369a4.262,4.262,0,0,1-.71.54.482.482,0,0,1-.4.114h0a1.916,1.916,0,0,1-.028.284,4.132,4.132,0,0,1-1.165,2.018,6.615,6.615,0,0,1-2.1,1.051,7.177,7.177,0,0,1-1.449.227h-.369a2.2,2.2,0,0,1-.256.028h-.341c-.171.057-.2.171-.171.256a1.145,1.145,0,0,0,.114.341.884.884,0,0,0,.853.426,15.458,15.458,0,0,0,1.648-.227,7.679,7.679,0,0,0,1.25-.341,4.159,4.159,0,0,0,.426-.256c.341-.256.654-.426.767-.512a5.965,5.965,0,0,0,2.131-3.58" transform="translate(-367.814 -421.349)" fill="#eccda0"/>
        <path id="Path_421" data-name="Path 421" d="M383.71,481.176s-.256-.426-.6-.966c-.2-.341-.4-.71-.6-1.08a3.662,3.662,0,0,1-.284-.625,2.8,2.8,0,0,1-.2-.625v-.028a2.337,2.337,0,0,1-.057-.511,8.9,8.9,0,0,1-1.449-.54c.284.313,0,.767-.114,1.023a.587.587,0,0,1-.8.313,5.941,5.941,0,0,1-1.449-.824c-.2-.142-.54-.114-.426.426a6.476,6.476,0,0,0,.682,1.733,10.245,10.245,0,0,0,.938,1.421,11.456,11.456,0,0,0,.881,1.051,2.825,2.825,0,0,0,.313.284,1.9,1.9,0,0,0,1.506.483,2.591,2.591,0,0,0,1.307-.6,10.85,10.85,0,0,1,1.25-.852.781.781,0,0,1-.909-.085" transform="translate(-351.173 -431.589)" fill="#eccda0"/>
        <path id="Path_422" data-name="Path 422" d="M486.565,475.895a2.777,2.777,0,0,1-.171-.654.368.368,0,0,1,.142-.341,2.851,2.851,0,0,1-1.051.341,1.516,1.516,0,0,0-.654.227c-.227.2.171.6.511.853.256.2,1.08.028,1.7-.171-.256.085-.4-.085-.483-.256" transform="translate(-427.8 -430.229)" fill="#eccda0"/>
        <path id="Path_423" data-name="Path 423" d="M431.184,460.879c-.028-.142-.256-.682-.313-.995a2.94,2.94,0,0,1-.057-.853,2.8,2.8,0,0,1,.057-1.165c.085-.369.227-.8.625-2.018a13.233,13.233,0,0,0,.256-2.643c.085-.682.227-2.33.483-4.007a1.706,1.706,0,0,0-.966.4,4.152,4.152,0,0,0-.881,2.245c0,.881-.057,2.16-.114,2.813-.171,1.506-1.194,3.5-1.023,4.4a4.753,4.753,0,0,0,2.273,2.9.558.558,0,0,1-.142-.426c-.057-.2-.142-.483-.2-.654" transform="translate(-388.048 -411.832)" fill="#eccda0"/>
        <path id="Path_424" data-name="Path 424" d="M421.627,650.4c-.085.114-.17.227-.227.313.057-.085.142-.2.227-.313" transform="translate(-382.441 -555.858)" fill="#fff"/>
        <path id="Path_425" data-name="Path 425" d="M419.485,653.5l-.085.085.085-.085" transform="translate(-381.009 -558.077)" fill="#fff"/>
        <path id="Path_426" data-name="Path 426" d="M420.614,652.1c-.028.028-.057.085-.114.114.057-.028.085-.085.114-.114" transform="translate(-381.797 -557.075)" fill="#fff"/>
        <path id="Path_427" data-name="Path 427" d="M419.814,653.1l-.114.114c.057-.028.085-.085.114-.114" transform="translate(-381.224 -557.791)" fill="#fff"/>
        <path id="Path_428" data-name="Path 428" d="M420.285,652.6a.393.393,0,0,1-.085.114.393.393,0,0,0,.085-.114" transform="translate(-381.582 -557.433)" fill="#fff"/>
        <path id="Path_429" data-name="Path 429" d="M421.014,651.6a.5.5,0,0,1-.114.142c.057-.057.085-.114.114-.142" transform="translate(-382.083 -556.717)" fill="#fff"/>
        <path id="Path_430" data-name="Path 430" d="M434.427,621.1a.745.745,0,0,0-.227.085.1.1,0,0,1,.057-.028,1.115,1.115,0,0,0,.171-.057" transform="translate(-391.604 -534.884)" fill="#fff"/>
        <path id="Path_431" data-name="Path 431" d="M419.014,653.9a.391.391,0,0,1-.114.085.391.391,0,0,0,.114-.085" transform="translate(-380.651 -558.364)" fill="#fff"/>
        <path id="Path_432" data-name="Path 432" d="M416.514,655.3h0" transform="translate(-378.862 -559.366)" fill="#fff"/>
        <path id="Path_433" data-name="Path 433" d="M412.157,655.5h0" transform="translate(-375.784 -559.509)" fill="#fff"/>
        <path id="Path_434" data-name="Path 434" d="M422.2,646.678c.284-.426.6-.938.938-1.478-.227.4-.455.8-.682,1.137a1.334,1.334,0,0,0-.256.341" transform="translate(-383.014 -552.136)" fill="#fff"/>
        <path id="Path_435" data-name="Path 435" d="M412.485,655.5h0" transform="translate(-375.998 -559.509)" fill="#fff"/>
        <path id="Path_436" data-name="Path 436" d="M418.214,654.6a.148.148,0,0,1-.114.057.216.216,0,0,1,.114-.057" transform="translate(-380.079 -558.865)" fill="#fff"/>
        <path id="Path_437" data-name="Path 437" d="M416.914,655.2c-.028.028-.057.028-.114.028a.215.215,0,0,1,.114-.028" transform="translate(-379.148 -559.294)" fill="#fff"/>
        <path id="Path_438" data-name="Path 438" d="M418.685,654.2c-.028.028-.057.028-.085.057.028,0,.057-.028.085-.057" transform="translate(-380.437 -558.578)" fill="#fff"/>
        <path id="Path_439" data-name="Path 439" d="M417.885,654.8c-.028.029-.057.029-.085.057,0-.028.028-.028.085-.057" transform="translate(-379.864 -559.008)" fill="#fff"/>
        <path id="Path_440" data-name="Path 440" d="M417.314,655c-.028.028-.057.028-.114.057.057-.028.085-.028.114-.057" transform="translate(-379.434 -559.151)" fill="#fff"/>
        <path id="Path_441" data-name="Path 441" d="M417.892,620.986a1.787,1.787,0,0,1-.2.057.1.1,0,0,1-.057.028,8.145,8.145,0,0,0-2.33,1.506q-.043,0-.085.085a3.66,3.66,0,0,1,.966-.114c.085.029-.369.37-.625.767a60.935,60.935,0,0,1-3.808,6.337,9.569,9.569,0,0,0-.654,1.108h.568c.227,0,.6-.029.938-.029h.114a.028.028,0,0,0,.028-.029.215.215,0,0,0,.114-.028h0c.028-.028.057-.028.114-.057H413c.028,0,.057-.028.085-.057h0c.028,0,.057-.029.114-.057l.028-.028c.028-.028.057-.028.085-.057h.028a.392.392,0,0,1,.114-.085.028.028,0,0,1,.028-.028l.085-.085v-.029l.114-.114h0c.028-.028.057-.085.114-.114,0,0,.085-.114.114-.142l.114-.17c.085-.114.142-.2.227-.313h0c.085-.114.142-.227.227-.341.227-.341.455-.739.682-1.137a31.16,31.16,0,0,0,3.041-5.939c.256-.8.171-1.108-.312-.938" transform="translate(-375.068 -534.771)" fill="#eccda0"/>
        <path id="Path_442" data-name="Path 442" d="M459.366,627.231a2.107,2.107,0,0,0,2.245-.511h-.028a.541.541,0,0,1-.54-.142,14.213,14.213,0,0,0-1.222-1.222,32.663,32.663,0,0,0-6.479-4.973c-.313-.142-.682.057-.483.4a9.649,9.649,0,0,1,.512,1.108c1.08,1.108,2.444,2.586,3.069,3.268a15.682,15.682,0,0,0,2.927,2.074" transform="translate(-404.92 -534.338)" fill="#eccda0"/>
        <path id="Path_443" data-name="Path 443" d="M393.7,604.851c.17,1.165.284,3.154,1.733,3.552,1.108.284,3.723-.085,5.087-.171.313-.426.6-.767.71-.966.341-.483-.114-.483-.313-.512-.2,0-.739.057-2.415.142-1.733.085-2.359-.227-2.756-.682-.426-.455-.227-1.336-.2-2.3s-.028-1.506,0-2.217a1.91,1.91,0,0,1,.17-1.108,3.015,3.015,0,0,0-.966.171c-1.733.71-1.023,2.756-1.051,4.092" transform="translate(-362.523 -520.198)" fill="#eccda0"/>
        <path id="Path_444" data-name="Path 444" d="M382.813,574.908c.114.171,1.421,1.392,1.535,1.478.085.085,1.534,1.165,2.415,1.79a2.375,2.375,0,0,0,.341-.114,13.047,13.047,0,0,1,3.1-.256c.426-.057.256-.369.142-.54a10.323,10.323,0,0,0-1.62-1.023,29.2,29.2,0,0,1-7.246-6.11c-.284-.4-.568-.54-1.051.426a6.219,6.219,0,0,0-.426,1.591,23.147,23.147,0,0,0,2.16,2.131,4.256,4.256,0,0,1,.654.625" transform="translate(-352.805 -498.183)" fill="#eccda0"/>
        <path id="Path_445" data-name="Path 445" d="M387.546,585.368c.028.028,0,.028,0,0-.028-.028-.028,0,0,0" transform="translate(-358.192 -509.297)" fill="#fff"/>
        <path id="Path_446" data-name="Path 446" d="M365.67,605.036c.057.114.284.455.568.881.284.4.512.767.6.853.057.114.6.852.739,1.023s.284.483.4.625c.4.483,1.9,2.188,2.046,2.3a6.514,6.514,0,0,0,1.023.824,2.265,2.265,0,0,0,2.415-.54.689.689,0,0,0,.171-.682c-.057.284-.284.426-.71.057a25.96,25.96,0,0,1-3.893-5c-1.677-2.5-3.893-9.036-4.007-9.377s-.483-.284-.625-.256c-.114.028-.54.227-.852.369-.284.114-.4.54-.739,1.989v.028c.284.8,1.08,3.183,1.364,3.95.369.909,1.449,2.842,1.506,2.955" transform="translate(-340.493 -516.718)" fill="#eccda0"/>
        <path id="Path_447" data-name="Path 447" d="M206.894,649.187c.54-2.444,2.813-11.935,2.813-11.935s5.342-5.371,7.133-10.827c1.193-3.552,5.683-14.009,6.053-14.748.341-.767.227-1.677-.2-1.876-.455-.227-1.819-.682-2.387-.938a3.909,3.909,0,0,0-2.3,0c-.824.284-7.331,2.557-7.331,2.557l-4.12,1.25c-.511.171-3.325.852-3.325.852-1.165.341-2.9.71-3.921,1.023a21.609,21.609,0,0,0-5.769,2.813c-1.336,1.108-3.779,4.319-4.149,3.978L182.2,645.862l24.694,3.325" transform="translate(-211.213 -526.001)" fill="#fff"/>
        <path id="Path_448" data-name="Path 448" d="M488.918,695.989c-.085-1.534.057-6.536.057-10.969,0-.852-.085-3.041-.085-3.95,0-1.051,3.666-3.666,3.666-3.95l-.142-4.12c-.4-4.888-.54-8.3-.71-10.372-.824-.028-1.7-.028-2.643-.028h-1.222s.369,10.116.426,11.878l.085,1.847c.028.739-3.808.966-3.751,1.733.057,1.677.057,3.183.114,4.8.2,5.456.256,10.685.313,12.589l3.893.54" transform="translate(-427.68 -564.591)" fill="#b12735"/>
        <path id="Path_449" data-name="Path 449" d="M516.575,697.012c-.028-2.018-.142-5.314-.284-8.354-.057-1.052-.114-2.131-.142-3.268-.085-2.188-.369-4.575-.511-6.877l3.58-2.728c-.256-2.643-1.108-13.157-1.108-13.157-1.051,0-2.273,0-3.694-.028,0,0,.909,9.832,1.08,12.787l-3.5,6.223c.085,2.018.085,3.581.142,4.916-.028.71-.028,1.478-.028,2.074.085,3.382.057,6.877,0,7.815l4.461.6" transform="translate(-447.296 -564.591)" fill="#b12735"/>
        <path id="Path_450" data-name="Path 450" d="M568.476,644.758a81.453,81.453,0,0,0-1.108-10c-.057-.4-.2-1.364-.256-1.819-.2-1.165-.4-1.9-.682-3.325-.284-1.478-.568-3.1-.739-3.609-.824-2.756-1.364-4.945-2.046-6.877-.625-1.819-6.507-21.824-9.349-30.889-.085-.256-.17-.682-.227-.938-.114-.654.6-.625.909-.568,1.108.256,11.224,2.3,13.981,2.927a53.527,53.527,0,0,1,6.109,1.79c.881.341-1.165.654.142,1.733,7.587,6.28,27.251,35.634,27.251,35.634l-4.945,20.432-29.042-4.49" transform="translate(-477.401 -510.263)" fill="#fff"/>
        <path id="Path_451" data-name="Path 451" d="M387.546,585.346c.028.028,0,.028,0,0h0" transform="translate(-358.192 -509.275)" fill="#fff"/>
        <path id="Path_452" data-name="Path 452" d="M263.753,638.4s5.342-5.371,7.133-10.827c1.194-3.552,5.683-14.009,6.053-14.748.341-.767.227-1.677-.2-1.875-.313-.142-1.08-.426-1.7-.654-1.193,1.449-2.927,6.649-3.779,9.065-1.449,2.984-13.157,25.717-13.356,30.036l-.2.852,3.751.256a.1.1,0,0,1,.028-.085l-.54-.057c.512-2.415,2.813-11.963,2.813-11.963" transform="translate(-265.259 -527.153)" fill="#eccda0"/>
        <path id="Path_453" data-name="Path 453" d="M488.2,662.6s.369,10.116.426,11.878l.085,1.847a15.16,15.16,0,0,0-.057,1.62c.057,1.677.057,3.183.114,4.8.2,5.428.284,10.685.313,12.589l-3.779-.455c-.057-1.08-.028-3.41-.028-6.593-.028-1.819-.028-2.359-.028-4.12,0-1.677-.142-3.524-.142-5.286l.085-4.746c-.028-1.535.085-11.509.085-11.509l2.927-.028" transform="translate(-428.04 -564.591)" fill="#fff"/>
        <path id="Path_454" data-name="Path 454" d="M512.669,662.628s.909,9.832,1.08,12.787l.227,6.053c.085,2.018.085,3.581.142,4.916-.028.71-.057,1.506-.028,2.074.085,3.382.057,6.877,0,7.815l-3.581-.455c-.085-1.535.057-6.507.057-10.94,0-.853-.085-3.041-.085-3.95,0-1.051-.028-3.524-.028-3.836l-.142-4.12c-.4-4.888-.54-8.3-.71-10.372l3.069.028" transform="translate(-445.578 -564.591)" fill="#fff"/>
        <path id="Path_455" data-name="Path 455" d="M536.626,662.8s.852,8.61,1.506,13.5l.171,1.506c.142,1.591.17,3.012.2,3.723.114,1.449.2,2.5.284,3.921.284,4.462.4,9.378.341,11.963l-3.467-.426c-.028-2.018-.142-5.257-.284-8.3-.057-1.051-.114-2.131-.142-3.24-.057-2.188-.369-4.575-.511-6.877l-.114-2.586c-.256-2.643-1.108-13.157-1.108-13.157l3.126-.028" transform="translate(-462.686 -564.735)" fill="#fff"/>
        <path id="Path_456" data-name="Path 456" d="M475.3,624.127V623.9h1.08v.227h-.426v1.051H475.7v-1.051Zm1.648-.227.313.909.313-.909h.341v1.279h-.227v-1.023l-.341,1.023h-.2l-.341-1.023v1.023h-.227V623.9Z" transform="translate(-421.024 -536.889)" fill="#1f1c14"/>
        <path id="Path_457" data-name="Path 457" d="M479.649,723.032a18.272,18.272,0,0,0,5.286-.994l-.966,4.12a35.107,35.107,0,0,1-6.962.739c-8.326.028-11.907-4.234-11.907-8.667-.028-5.939,6.365-11.878,16.652-11.736a20,20,0,0,1,5.655.881l-1.364,4.888h-.682c-.852-1.108-2.131-1.961-4.689-1.961-5.2,0-8.44,2.842-8.411,6.649-.028,3.467,2.955,6.081,7.388,6.081" transform="translate(-413.723 -596.01)" fill="#fff"/>
        <path id="Path_458" data-name="Path 458" d="M401.838,707.3l-.313,1.279a1.559,1.559,0,0,1,1.364,2.16l-4.49,16.311h8.951l.341-1.392a1.6,1.6,0,0,1-1.25-1.961c.028-.142,1.307-4.831,1.307-4.831h4.12a3.133,3.133,0,0,1,2.728,1.08l1.193-4.831h-6.905l1.023-3.808h6.024c1.108,0,1.875.739,1.875,1.279h.682l1.336-5.286H401.838" transform="translate(-365.977 -596.589)" fill="#fff"/>
        <path id="Path_459" data-name="Path 459" d="M326.4,724.008c-.54-.568-5.143-7.758-5.143-7.758l8.44-6.763a3.427,3.427,0,0,1,2.415-1.051l.341-1.307H321.965l-.341,1.279c.71.028,1.7.682.881,1.449-.114.085-8.44,6.451-8.44,6.451l1.79-6.507a2.08,2.08,0,0,1,1.705-1.392l.341-1.307h-10l-.313,1.279a1.555,1.555,0,0,1,1.364,2.188C305.6,722.644,306,721.45,305.768,722.1c-.909,3.5-2.387,3.3-2.927,3.353l-.341,1.392h10.486l.341-1.421s-1.677-.341-1.336-1.535c.313-1.193,1.62-5.939,1.62-5.939,1.819,2.927,2.245,3.268,4.433,6.28s4.518,2.614,10.713,2.614l.341-1.392a3.438,3.438,0,0,1-2.7-1.449" transform="translate(-297.328 -596.446)" fill="#fff"/>
        <path id="Path_460" data-name="Path 460" d="M0,0V2608.637H3375.883V0" transform="translate(-80.788 -90.279)" fill="none"/>
      </g>
    </g>
  </g>
</svg>
