<svg id="_004-baby-dress" data-name="004-baby-dress" xmlns="http://www.w3.org/2000/svg" width="95.214" height="83.623" viewBox="0 0 95.214 83.623">
  <g id="Group_53" data-name="Group 53" transform="translate(0 0)">
    <g id="Group_52" data-name="Group 52">
      <path id="Path_483" data-name="Path 483" d="M94.949,58.193C91.907,52.923,80.435,36.1,72.341,31.431a1.983,1.983,0,0,0-2.394.315c-5.014,5.015-13.365,8.008-22.338,8.008s-17.324-2.994-22.339-8.009a1.985,1.985,0,0,0-2.395-.315C14.781,36.1,3.309,52.922.266,58.193a1.984,1.984,0,0,0-.1,1.776C2.157,64.6,7.1,69.943,12.461,73.26a1.984,1.984,0,0,0,2.455-.294c1.287-1.3,4.333-4.706,7.05-7.994-.218,5.545-1.688,14.794-2.935,22.638-1.509,9.491-3.069,19.3-3.069,25.194a1.984,1.984,0,0,0,1.984,1.984H77.273a1.984,1.984,0,0,0,1.984-1.984c0-.044,0-.087,0-.13-.023-5.9-1.571-15.642-3.068-25.063-1.247-7.844-2.717-17.093-2.935-22.638,2.717,3.288,5.763,6.689,7.05,7.994a1.985,1.985,0,0,0,2.455.294c5.362-3.317,10.3-8.658,12.3-13.291A1.985,1.985,0,0,0,94.949,58.193ZM82.009,69c-2.312-2.51-6.371-7.206-8.664-10.307a1.984,1.984,0,0,0-3.429.423c-1.534,3.717-.136,13.48,2.35,29.117,1.321,8.311,2.682,16.873,2.966,22.587H19.984c.284-5.714,1.645-14.277,2.966-22.587,2.486-15.637,3.884-25.4,2.35-29.117a1.984,1.984,0,0,0-3.429-.423c-2.293,3.1-6.352,7.8-8.664,10.307a29.891,29.891,0,0,1-8.98-9.715c4.118-6.857,13.137-19.138,19.415-23.629a27.3,27.3,0,0,0,2.729,2.1c-1.97,1.951-4,4.174-5.524,5.884a1.984,1.984,0,0,0,2.966,2.635c2.287-2.574,4.414-4.813,6.118-6.448a39.947,39.947,0,0,0,17.677,3.89c9.492,0,18.12-2.922,23.965-8.065,6.279,4.491,15.3,16.773,19.415,23.629A29.885,29.885,0,0,1,82.009,69Z" transform="translate(-0.001 -31.165)" fill="#686767"/>
      <path id="Path_484" data-name="Path 484" d="M349.091,339.385a1.984,1.984,0,0,0,1.665-2.258l-.013-.087a1.984,1.984,0,1,0-3.917.633l.007.046a1.98,1.98,0,0,0,2.257,1.665Z" transform="translate(-282.308 -278.801)" fill="#484848"/>
      <path id="Path_485" data-name="Path 485" d="M92.819,118.034a1.984,1.984,0,0,0-2.753.239c-.027.03-.053.061-.068.078a1.984,1.984,0,0,0,3.031,2.56c.03-.034.059-.068.074-.087A1.984,1.984,0,0,0,92.819,118.034Z" transform="translate(-72.894 -101.516)"/>
      <path id="Path_486" data-name="Path 486" d="M353.136,364.933a1.984,1.984,0,0,0-1.657,2.264c.474,3.06.833,5.543,1.132,7.813q.116.881.232,1.788a1.984,1.984,0,0,0,1.965,1.735,2.024,2.024,0,0,0,.252-.016,1.983,1.983,0,0,0,1.719-2.217q-.116-.914-.234-1.807c-.3-2.3-.666-4.813-1.145-7.9A1.984,1.984,0,0,0,353.136,364.933Z" transform="translate(-286.097 -302.845)" fill="#484848"/>
      <path id="Path_487" data-name="Path 487" d="M197.764,128.772a10.86,10.86,0,0,0-1.38-2.049c-.517-.645-.809-1.026-.809-1.353s.292-.708.809-1.353a10.855,10.855,0,0,0,1.379-2.048,5.327,5.327,0,0,0-.177-4.9,4.82,4.82,0,0,0-4.411-2.147h-.086c-6.317,0-9.723,2.127-11.552,4.276-.118-.007-.236-.011-.355-.011s-.237,0-.355.011c-1.837-2.159-5.265-4.3-11.638-4.275a4.821,4.821,0,0,0-4.411,2.147,5.328,5.328,0,0,0-.177,4.9,10.831,10.831,0,0,0,1.38,2.049c.517.645.809,1.026.809,1.353s-.293.708-.809,1.353a10.848,10.848,0,0,0-1.38,2.049,5.327,5.327,0,0,0,.177,4.9,4.821,4.821,0,0,0,4.411,2.147h.086c6.317,0,9.723-2.128,11.551-4.276.118.007.236.011.355.011s.237,0,.355-.011c1.828,2.148,5.233,4.276,11.552,4.276h.086a4.82,4.82,0,0,0,4.411-2.147A5.327,5.327,0,0,0,197.764,128.772Zm-20.857,1.054c-1.7,1.329-4.291,2.022-7.63,2.022H169.2c-.536,0-.949-.108-1.052-.271a1.473,1.473,0,0,1,.013-1.057,7.517,7.517,0,0,1,.915-1.317,5.213,5.213,0,0,0,0-7.666,7.506,7.506,0,0,1-.915-1.316,1.472,1.472,0,0,1-.013-1.057c.1-.163.516-.269,1.052-.271h.074c3.339,0,5.93.693,7.63,2.021a6.166,6.166,0,0,0,0,8.913Zm4.276-2.243a2.213,2.213,0,1,1,2.213-2.213A2.215,2.215,0,0,1,181.184,127.583Zm13.031,3.994c-.1.163-.515.269-1.051.271h-.074c-3.339,0-5.93-.693-7.63-2.022a6.165,6.165,0,0,0,0-8.912c1.714-1.339,4.332-2.034,7.7-2.022.536,0,.949.108,1.051.271a1.474,1.474,0,0,1-.013,1.057,7.489,7.489,0,0,1-.915,1.316,5.213,5.213,0,0,0,0,7.666,7.5,7.5,0,0,1,.915,1.317A1.471,1.471,0,0,1,194.215,131.577Z" transform="translate(-133.577 -99.348)" fill="#484848"/>
    </g>
  </g>
</svg>
