<svg id="Group_330" data-name="Group 330" xmlns="http://www.w3.org/2000/svg" width="150.327" height="38.7" viewBox="0 0 150.327 38.7">
  <path id="Path_29" data-name="Path 29" d="M9.843,9.8a8.641,8.641,0,0,1,1.391-1.376,21.99,21.99,0,0,1,8.647-7.9A13.121,13.121,0,0,0,15.947,0a14.535,14.535,0,0,0-4.293.613,15.138,15.138,0,0,0-3.815,1.72A15.627,15.627,0,0,0,4.622,5,17.162,17.162,0,0,0,2.154,8.437,17.563,17.563,0,0,0,.568,12.506,17.944,17.944,0,0,0,0,17.009a18.106,18.106,0,0,0,1.331,6.986,17.4,17.4,0,0,0,3.755,5.64,11.656,11.656,0,0,0,2.184,1.72,17.656,17.656,0,0,0,2.468,1.287,14.233,14.233,0,0,0,2.6.823.532.532,0,0,0,.15.03A21.73,21.73,0,0,1,7.884,20.479a12.2,12.2,0,0,1-.509-3.486,12.02,12.02,0,0,1,.658-3.9A10.912,10.912,0,0,1,9.843,9.8Z" fill="#d4145a"/>
  <path id="Path_30" data-name="Path 30" d="M302.639,36.771h.135v-.18A.933.933,0,0,0,302.639,36.771ZM310.433,3.8h-8.721L300.5,7.45a22.357,22.357,0,0,1,4.278,5.67l1.032-3.336,3.351,10.726H307.1a21.439,21.439,0,0,1,.18,2.8,20.981,20.981,0,0,1-.18,2.767h3.815l1.481,4.742H309.1v5.954h4.727A45.57,45.57,0,0,0,317,23.98Z" transform="translate(-255.547 -3.232)" fill="#d4145a"/>
  <path id="Path_31" data-name="Path 31" d="M397.379,145.436v5.954H389.6a45.569,45.569,0,0,0,3.171-12.79l2.214,6.836Z" transform="translate(-331.318 -117.866)" fill="#d4145a"/>
  <path id="Path_32" data-name="Path 32" d="M482.238,3.8V9.784h2.812v5.744q1.032-.09,2.064-.09a26.041,26.041,0,0,1,4.981.479V9.784h2.678V3.8H482.238Zm.568,18.056-3.321-5.266a26.1,26.1,0,0,0-5.864,2.693l9.589,14.885a44.034,44.034,0,0,1-.4-12.312ZM461.4,30.8v5.954h.539a25.564,25.564,0,0,1,1.75-5.954Z" transform="translate(-392.377 -3.232)" fill="#d4145a"/>
  <path id="Path_33" data-name="Path 33" d="M479.741,16.59a26.1,26.1,0,0,0-5.864,2.693l-2.468-3.845v5.595a25.758,25.758,0,0,0-7.031,8.826V9.784H461.7V3.8h9.963Z" transform="translate(-392.632 -3.232)" fill="#ff6617"/>
  <path id="Path_34" data-name="Path 34" d="M703.7,3.8v6.612h3.067v8.961a25.756,25.756,0,0,1,7.091,6.672V10.412h2.3V3.8Z" transform="translate(-598.431 -3.232)" fill="#d4145a"/>
  <path id="Path_35" data-name="Path 35" d="M795.4,199.3v3.71h.9A22.718,22.718,0,0,0,795.4,199.3Z" transform="translate(-676.413 -169.486)" fill="#d4145a"/>
  <path id="Path_36" data-name="Path 36" d="M76.231,106.5v17.592H69.724v-5.655a13.455,13.455,0,0,1-2.633,3.486,10.446,10.446,0,0,1-2.9,1.78,11.257,11.257,0,0,1-4.338.658,13.378,13.378,0,0,1-2.543-.284A21.73,21.73,0,0,1,52.7,111.063l.09.269a9.473,9.473,0,0,0,1.78,3.2,8.312,8.312,0,0,0,2.782,2.184,7.731,7.731,0,0,0,3.4.763,6.34,6.34,0,0,0,4.024-1.346,7.549,7.549,0,0,0,2.483-3.68H60.973V106.5Z" transform="translate(-44.816 -90.568)" fill="#ff6617"/>
  <path id="Path_37" data-name="Path 37" d="M93.116,6.223v7.345H86.4a9.2,9.2,0,0,0-1.885-2.244A8.573,8.573,0,0,0,82.6,10.172a7.426,7.426,0,0,0-2.887-.449,7.164,7.164,0,0,0-3.4.823A8.24,8.24,0,0,0,75,11.4a21.989,21.989,0,0,1,8.647-7.9,5.059,5.059,0,0,1,.509.165,13.264,13.264,0,0,1,4.069,2.558h4.892Z" transform="translate(-63.78 -2.976)" fill="#ff6617"/>
  <path id="Path_38" data-name="Path 38" d="M242.787,46.809l-1.481,4.742h3.486v5.774l-.135.18H232.3V51.552h2.453L242.517,28.2a22.357,22.357,0,0,1,4.278,5.67l-2.274,7.375h4.593a21.439,21.439,0,0,1,.18,2.8,20.979,20.979,0,0,1-.18,2.767h-6.328Z" transform="translate(-197.549 -23.981)" fill="#ff6617"/>
  <path id="Path_39" data-name="Path 39" d="M824.432,30.8l-1.212-3.74a16.439,16.439,0,0,1-12-6.567h-3.515l1.272-4.114A16.429,16.429,0,0,1,809.442,3.8h-2.513l-8.976,27H795.5v2.244a25.313,25.313,0,0,1,.9,3.71h11.594V30.8h-3.486l1.481-4.742h10.128L817.6,30.8h-3.276v5.954h12.506V30.8Z" transform="translate(-676.498 -3.232)" fill="#d4145a"/>
  <path id="Path_40" data-name="Path 40" d="M476.968,128.854v5.954H465a25.564,25.564,0,0,1,1.75-5.954h.419v-.927A25.446,25.446,0,0,1,474.2,119.1v9.754Z" transform="translate(-395.439 -101.283)" fill="#d4145a"/>
  <path id="Path_42" data-name="Path 42" d="M612.244,81.994v20.838h-7.225l-1.661-2.588a42.919,42.919,0,0,1-.658-7.525,42.2,42.2,0,0,1,.269-4.787l2.229,3.53V81.59q1.032-.09,2.064-.09A27.17,27.17,0,0,1,612.244,81.994Z" transform="translate(-512.54 -69.308)" fill="#ff6617"/>
  <path id="Path_43" data-name="Path 43" d="M704.928,114.387v6.986a12,12,0,0,1-1.391,3.231c-.613.972-1.212,1.87-1.8,2.663s-1.406,1.81-2.468,3.022l-6.074-.329c.853-1.3,1.526-2.379,2-3.231s.972-1.78,1.466-2.812a15.431,15.431,0,0,0,1.152-3.276V107.7A25.881,25.881,0,0,1,704.928,114.387Z" transform="translate(-589.501 -91.589)" fill="#ff6617"/>
  <path id="Path_44" data-name="Path 44" d="M893.974,27.062a16.439,16.439,0,0,1-12-6.567h3.141L881.767,9.769l-2.034,6.612A16.428,16.428,0,0,1,880.2,3.8H886.4Z" transform="translate(-747.252 -3.232)" fill="#ff6617"/>
</svg>
