<svg xmlns="http://www.w3.org/2000/svg" width="104.469" height="80.341" viewBox="0 0 104.469 80.341">
  <g id="Group_30" data-name="Group 30" transform="translate(-2.953)">
    <path id="Path_306" data-name="Path 306" d="M364.568,265.4a2.854,2.854,0,0,1,0,5.708,2.854,2.854,0,1,1,0-5.708Zm0,5.287a2.355,2.355,0,0,0,2.334-2.447,2.335,2.335,0,1,0-4.668,0,2.355,2.355,0,0,0,2.334,2.447Zm-1.1-4.106h1.265c.787,0,1.153.309,1.153.956a.849.849,0,0,1-.872.9l.956,1.462h-.562l-.9-1.434h-.534V269.9h-.506v-3.318Zm.506,1.462h.534c.45,0,.872-.028.872-.562,0-.45-.366-.506-.731-.506h-.675v1.069Z" transform="translate(-259.987 -190.768)" fill="#ffca38" fill-rule="evenodd"/>
    <path id="Path_307" data-name="Path 307" d="M103.6,12.3Z" transform="translate(-74.467 -8.841)" fill="#fff" fill-rule="evenodd"/>
    <path id="Path_308" data-name="Path 308" d="M245.3,12.3Z" transform="translate(-176.32 -8.841)" fill="#fff" fill-rule="evenodd"/>
    <path id="Path_309" data-name="Path 309" d="M75.965,5.68c7.874,0,14.229,33.126,14.229,74.014h11.389C101.611,35.685,90.138,0,75.965,0,67.922,0,60.724,10.714,56.027,27.5,51.359,10.714,44.16,0,36.118,0,21.973,0,10.5,35.685,10.5,79.722H21.889c0-40.887,6.383-74.014,14.229-74.014,7.874,0,14.229,30.6,14.229,68.333H61.736c0-37.766,6.383-68.361,14.229-68.361Z" transform="translate(-7.547)" fill="#ffca38" fill-rule="evenodd"/>
  </g>
</svg>
