<svg id="_002-perfume" data-name="002-perfume" xmlns="http://www.w3.org/2000/svg" width="80.337" height="92.239" viewBox="0 0 80.337 92.239">
  <path id="Path_474" data-name="Path 474" d="M105.8,32.919c-5.723-5.442-13.766-7.024-18.753-7.464v-9.09H83.2L89.021,8.8,80.223,0H64.114l-8.8,8.8,5.82,7.567H57.291v9.093C52.3,25.9,44.26,27.477,38.537,32.919,34.2,37.044,32,42.635,32,49.535c0,27.407,17.662,41.781,18.414,42.379l.406.324h42.7l.406-.324c.751-.6,18.414-14.972,18.414-42.379C112.337,42.635,110.137,37.044,105.8,32.919ZM79.446,16.365h-5.79V10.414H84.024Zm4.008-8.926H75.76l3.847-3.847ZM76.016,2.975,72.169,6.823,68.321,2.975ZM64.73,3.591l3.847,3.847H60.883Zm-4.417,6.823H70.681v5.951h-5.79ZM92.449,89.263H51.888A53.9,53.9,0,0,1,35.27,55.046h73.8A53.906,53.906,0,0,1,92.449,89.263ZM35.071,52.07c-.037-.841-.1-1.668-.1-2.535,0-6.048,1.885-10.909,5.6-14.45,7.732-7.366,20.972-6.818,21.1-6.8v-.015H78.119V25.291H60.267V19.34h23.8v5.951c-.393-.006-.7,0-.949,0H81.095v2.975h1.561v.015c.138-.012,13.337-.583,21.093,6.793,3.724,3.542,5.613,8.407,5.613,14.461,0,.867-.058,1.695-.1,2.535Z" transform="translate(-32)"/>
  <path id="Path_475" data-name="Path 475" d="M64.024,249.9l2.975.049a19.478,19.478,0,0,1,.237-2.763L64.3,246.7A22.455,22.455,0,0,0,64.024,249.9Z" transform="translate(-58.069 -200.826)"/>
  <path id="Path_476" data-name="Path 476" d="M73.6,174.056a14.267,14.267,0,0,0-3.52,5.359l2.787,1.043a11.165,11.165,0,0,1,2.791-4.25c4.807-4.6,13.187-5.139,15.642-5.192l-.067-2.975C87.739,168.116,79.029,168.857,73.6,174.056Z" transform="translate(-62.998 -136.79)"/>
</svg>
