<svg id="_001-toy-train" data-name="001-toy-train" xmlns="http://www.w3.org/2000/svg" width="95.214" height="82.533" viewBox="0 0 95.214 82.533">
  <path id="Path_470" data-name="Path 470" d="M104.829,146.9a9.394,9.394,0,1,0-9.394,9.394A9.4,9.4,0,0,0,104.829,146.9Zm-16,0a6.6,6.6,0,1,1,6.6,6.6A6.612,6.612,0,0,1,88.831,146.9Z" transform="translate(-70.04 -118.278)"/>
  <path id="Path_471" data-name="Path 471" d="M94.034,92.854l-8.6-11.414a6.935,6.935,0,0,0-5.512-2.749h-.77V76.162a1.395,1.395,0,1,0-2.789,0v2.529H43.424V61.353H74.89a1.476,1.476,0,0,1,1.474,1.474V69.02a1.395,1.395,0,1,0,2.789,0V62.827a4.269,4.269,0,0,0-4.264-4.264H73.85V49.169a3.573,3.573,0,0,0,3.415-3.564V41.438a3.576,3.576,0,0,0-3.572-3.572h-16a3.576,3.576,0,0,0-3.572,3.572v4.167a3.573,3.573,0,0,0,3.415,3.564v9.394H43.424v-9.77h.826A4.853,4.853,0,0,0,49.1,43.946v-5A4.853,4.853,0,0,0,44.249,34.1H6.541a4.853,4.853,0,0,0-4.848,4.848v5a4.853,4.853,0,0,0,4.848,4.848h.826v4.913a1.395,1.395,0,0,0,2.789,0V48.793H40.634v29.9H10.156V61.63a1.395,1.395,0,0,0-2.789,0V78.691H6.176A6.183,6.183,0,0,0,0,84.867V96.029A6.183,6.183,0,0,0,6.176,102.2H8.521a15.816,15.816,0,0,0,31.51,0h10.8a15.816,15.816,0,0,0,31.51,0h7.027a5.838,5.838,0,0,0,4.664-9.35ZM71.06,58.563H60.329V49.177H71.06ZM56.914,45.605V41.438a.783.783,0,0,1,.782-.782h16a.783.783,0,0,1,.782.782v4.167a.783.783,0,0,1-.782.782h-16A.783.783,0,0,1,56.914,45.605ZM6.541,46a2.06,2.06,0,0,1-2.058-2.058v-5a2.06,2.06,0,0,1,2.058-2.058H44.249a2.06,2.06,0,0,1,2.058,2.058v5A2.06,2.06,0,0,1,44.249,46ZM24.276,113.84a13.03,13.03,0,1,1,13.03-13.03A13.045,13.045,0,0,1,24.276,113.84Zm42.313,0a13.03,13.03,0,1,1,13.03-13.03A13.045,13.045,0,0,1,66.589,113.84ZM92.1,97.727a2.992,2.992,0,0,1-2.728,1.688H82.344a15.816,15.816,0,0,0-31.51,0h-10.8a15.816,15.816,0,0,0-31.51,0H6.176A3.39,3.39,0,0,1,2.79,96.029V84.867A3.39,3.39,0,0,1,6.176,81.48H79.924a4.131,4.131,0,0,1,3.284,1.638l8.6,11.414A2.993,2.993,0,0,1,92.1,97.727Z" transform="translate(0 -34.097)"/>
  <path id="Path_472" data-name="Path 472" d="M96.738,351.307a7.725,7.725,0,0,0-6.812,11.362,1.395,1.395,0,0,0,2.46-1.316,4.871,4.871,0,0,1-.58-2.323,4.933,4.933,0,1,1,4.933,4.933c-.159,0-.319-.007-.475-.022A1.395,1.395,0,1,0,96,366.717c.243.023.492.035.74.035a7.722,7.722,0,1,0,0-15.445Z" transform="translate(-72.462 -292.317)"/>
  <path id="Path_473" data-name="Path 473" d="M324.268,351.307a7.722,7.722,0,1,0,7.722,7.722A7.731,7.731,0,0,0,324.268,351.307Zm0,12.655a4.933,4.933,0,1,1,4.933-4.933A4.938,4.938,0,0,1,324.268,363.962Z" transform="translate(-257.679 -292.317)"/>
</svg>
