<svg id="Women" xmlns="http://www.w3.org/2000/svg" width="50.211" height="95.214" viewBox="0 0 50.211 95.214">
  <g id="Group_82" data-name="Group 82" transform="translate(0)">
    <path id="Path_491" data-name="Path 491" d="M171.206,85.279a167.676,167.676,0,0,0-9.8-48.61l-.1-.268A3.2,3.2,0,0,0,159.1,34.4a3.214,3.214,0,0,0,.04-.507V32.083a3.2,3.2,0,0,0-.46-1.657,5.057,5.057,0,0,0,1.218-2.9,64.325,64.325,0,0,1,1.244-8.445l.464-2.147A8.685,8.685,0,0,0,161.8,15L161.653,3.16A3.2,3.2,0,0,0,158.478,0H155.7a3.167,3.167,0,0,0-3.137,2.706l-.782,5.048a5.671,5.671,0,0,1-11.231,0l-.782-5.048A3.167,3.167,0,0,0,136.634,0h-2.773a3.2,3.2,0,0,0-3.175,3.16L130.54,15a8.688,8.688,0,0,0,.195,1.938l.464,2.147a64.33,64.33,0,0,1,1.244,8.445,5,5,0,0,0,1.215,2.9,3.2,3.2,0,0,0-.457,1.653v1.805a3.233,3.233,0,0,0,.035.477A3.2,3.2,0,0,0,130.9,36.4l-.1.267A167.688,167.688,0,0,0,121,85.194a3.213,3.213,0,0,0,1.457,2.856,42.808,42.808,0,0,0,47.275.092A3.216,3.216,0,0,0,171.206,85.279ZM133.462,16.345a5.9,5.9,0,0,1-.132-1.314l.146-11.836a.4.4,0,0,1,.386-.405h2.773a.393.393,0,0,1,.381.344l.782,5.048a8.46,8.46,0,0,0,16.744,0l.782-5.048a.393.393,0,0,1,.381-.344h2.773a.4.4,0,0,1,.386.405l.146,11.836a5.9,5.9,0,0,1-.132,1.314l-.464,2.147a67.2,67.2,0,0,0-1.3,8.812,2.241,2.241,0,0,1-.86,1.593q-.145-.013-.293-.014h-3.848a1.395,1.395,0,1,0,0,2.789h3.848a.4.4,0,0,1,.386.41v1.805a.4.4,0,0,1-.386.41H136.376a.4.4,0,0,1-.386-.41V32.083a.4.4,0,0,1,.386-.41h10.308a1.395,1.395,0,0,0,0-2.789H136.376q-.148,0-.293.014a2.211,2.211,0,0,1-.859-1.593,67.182,67.182,0,0,0-1.3-8.812Zm34.768,69.45a40.019,40.019,0,0,1-44.253-.087.416.416,0,0,1-.186-.371,164.9,164.9,0,0,1,9.634-47.719l.1-.267a.39.39,0,0,1,.36-.263h4.13q-.062.223-.11.46l-.1.481c-1.967,9.781-3.67,19.863-5.061,29.967a1.395,1.395,0,1,0,2.763.38c1.383-10.048,3.076-20.073,5.032-29.8l.1-.481a2.135,2.135,0,0,1,.426-1.01h3.714v24.6a1.395,1.395,0,0,0,2.789,0v-24.6h3.714a2.136,2.136,0,0,1,.426,1.01l.1.481c1.956,9.725,3.649,19.75,5.032,29.8A1.395,1.395,0,1,0,159.6,68c-1.391-10.1-3.094-20.187-5.061-29.967l-.1-.481q-.048-.237-.11-.46h4a.39.39,0,0,1,.36.263l.1.268a164.9,164.9,0,0,1,9.638,47.8A.42.42,0,0,1,168.229,85.795Z" transform="translate(-120.999)" fill="#484848"/>
  </g>
</svg>
